<?xml version="1.0" standalone="no"?>
<!DOCTYPE svg PUBLIC "-//W3C//DTD SVG 20010904//EN"
 "http://www.w3.org/TR/2001/REC-SVG-20010904/DTD/svg10.dtd">
<svg version="1.0" xmlns="http://www.w3.org/2000/svg"
 width="1998.000000pt" height="2048.000000pt" viewBox="0 0 1998.000000 2048.000000"
 preserveAspectRatio="xMidYMid meet">

<g transform="translate(0.000000,2048.000000) scale(0.100000,-0.100000)"
fill="#000000" stroke="none">
<path d="M9429 19556 c-2 -2 -92 -9 -199 -16 -107 -7 -196 -13 -198 -15 -3 -3
46 -725 54 -790 l5 -41 168 12 c93 6 209 15 259 19 l90 7 -6 66 c-2 37 -6 68
-7 70 -2 2 -85 -2 -185 -9 -103 -6 -185 -8 -190 -3 -4 5 -10 55 -13 110 l-5
102 62 6 c33 3 109 8 169 12 l107 6 0 38 c0 21 -3 52 -7 70 l-6 33 -121 -7
c-67 -3 -142 -9 -167 -12 l-46 -6 -8 87 c-5 66 -4 90 5 95 7 4 72 11 144 14
72 4 148 9 169 12 l37 6 0 69 0 69 -53 0 c-30 0 -56 -2 -58 -4z"/>
<path d="M10247 19393 c-4 -92 -10 -279 -13 -415 l-7 -248 67 0 66 0 0 58 c0
31 5 176 10 322 5 146 10 306 11 355 l2 90 -65 3 -65 3 -6 -168z"/>
<path d="M11656 19419 c-3 -8 -7 -32 -11 -54 -3 -22 -9 -49 -11 -61 -5 -19 1
-22 56 -33 34 -7 64 -10 67 -7 7 7 22 84 23 117 0 24 -5 27 -46 34 -26 3 -53
9 -60 12 -8 3 -16 -1 -18 -8z"/>
<path d="M9820 19334 c-48 -21 -78 -51 -108 -109 -34 -66 -43 -231 -18 -316
35 -121 112 -183 226 -182 98 0 157 40 199 133 31 69 28 87 -16 94 -21 4 -50
9 -64 12 -24 4 -27 1 -33 -29 -9 -51 -39 -77 -87 -77 -69 0 -109 72 -109 193
1 101 46 177 106 177 28 0 84 -49 84 -74 0 -19 12 -20 79 -4 55 12 58 18 36
71 -20 49 -64 97 -102 113 -43 18 -149 17 -193 -2z"/>
<path d="M10609 19297 c-52 -27 -102 -96 -124 -170 -22 -75 -20 -223 5 -290
19 -51 63 -103 106 -125 35 -18 117 -25 162 -13 52 14 106 61 133 114 11 21
19 40 17 42 -4 4 -110 35 -120 35 -5 0 -13 -11 -18 -24 -14 -39 -55 -60 -92
-50 -41 12 -69 52 -75 107 l-5 45 58 -4 c210 -17 260 -20 264 -16 12 10 1 191
-14 227 -54 129 -183 182 -297 122z m135 -108 c29 -14 56 -64 56 -107 l0 -29
-72 4 c-115 7 -121 9 -114 43 11 56 50 97 93 99 7 1 23 -4 37 -10z"/>
<path d="M11125 19257 c-99 -46 -133 -200 -62 -283 13 -14 70 -49 127 -78 84
-41 106 -56 108 -74 6 -38 -24 -62 -78 -62 -58 0 -97 27 -105 74 l-7 33 -56
-4 c-85 -6 -83 -5 -67 -58 18 -61 57 -110 108 -137 62 -33 197 -32 250 0 68
43 108 144 88 220 -15 54 -57 90 -174 147 -113 55 -131 79 -83 110 48 32 146
-7 146 -58 0 -17 5 -19 38 -13 20 3 50 6 66 6 27 0 28 2 23 35 -9 54 -44 103
-91 127 -52 27 -185 36 -231 15z"/>
<path d="M7397 19233 c-54 -16 -54 1 -2 -178 18 -60 31 -111 30 -113 -1 -1
-15 4 -31 13 -118 61 -237 -10 -258 -156 -13 -91 25 -242 84 -331 44 -66 99
-101 168 -106 70 -5 114 21 151 88 l25 44 9 -34 c5 -19 10 -37 12 -38 2 -2 29
4 60 13 54 15 57 17 50 43 -4 15 -49 176 -100 357 -51 182 -98 349 -105 373
-12 47 -17 48 -93 25z m20 -389 c50 -31 103 -191 89 -265 -9 -49 -47 -83 -93
-83 -50 0 -95 51 -122 139 -28 89 -27 154 0 189 37 47 74 53 126 20z"/>
<path d="M12480 19248 c0 -2 -47 -181 -104 -398 -58 -217 -103 -396 -101 -398
6 -7 117 -33 121 -29 6 5 204 755 207 781 1 14 -9 22 -43 32 -41 12 -80 18
-80 12z"/>
<path d="M8352 19211 c-29 -10 -64 -28 -77 -41 -37 -35 -59 -101 -51 -156 14
-104 68 -143 230 -169 55 -9 103 -18 108 -21 4 -3 8 -21 8 -39 0 -28 -6 -37
-30 -50 -45 -23 -106 -20 -134 8 -13 13 -25 29 -28 37 -3 10 -14 10 -58 -5
-30 -9 -59 -21 -63 -25 -12 -10 15 -59 50 -92 75 -72 220 -79 314 -15 107 72
107 262 -1 317 -22 11 -83 27 -137 36 -100 17 -143 34 -143 58 0 24 39 48 85
54 41 4 50 1 75 -23 29 -27 31 -28 70 -15 74 24 78 32 46 80 -50 76 -152 100
-264 61z"/>
<path d="M11615 19188 c-4 -13 -91 -510 -97 -557 -3 -23 2 -26 60 -36 46 -9
65 -9 67 -1 2 6 25 139 52 296 l50 285 -46 12 c-62 15 -81 15 -86 1z"/>
<path d="M11956 19130 c-16 -5 -42 -22 -58 -37 -29 -27 -63 -81 -56 -88 2 -2
25 -13 52 -25 l49 -21 27 26 c29 28 72 33 115 13 28 -13 40 -45 31 -82 -5 -19
-14 -24 -58 -30 -29 -3 -80 -6 -113 -6 -113 0 -182 -72 -184 -190 -2 -84 54
-151 137 -165 35 -6 70 2 134 29 13 6 17 1 20 -20 3 -24 10 -30 53 -41 76 -19
75 -20 75 47 0 34 16 131 35 217 19 86 35 178 35 205 0 89 -42 136 -146 163
-64 17 -104 18 -148 5z m129 -362 c-21 -75 -39 -109 -65 -123 -38 -20 -79 -19
-102 2 -23 21 -25 95 -2 114 16 13 77 25 142 28 30 1 33 -1 27 -21z"/>
<path d="M7818 19110 c-46 -25 -92 -80 -107 -129 -16 -54 -14 -163 5 -234 28
-110 77 -183 147 -218 52 -27 153 -23 212 7 48 25 94 94 102 153 l6 41 -65 0
c-65 0 -66 0 -71 -30 -15 -72 -92 -94 -145 -40 -36 35 -58 89 -39 95 7 2 77
18 157 35 79 17 147 33 149 36 9 9 -51 169 -79 208 -48 66 -92 90 -169 93 -51
3 -74 -1 -103 -17z m147 -122 c22 -17 55 -72 55 -92 0 -2 -35 -12 -77 -21 -43
-9 -86 -19 -95 -21 -16 -5 -18 2 -18 46 0 44 4 56 29 81 35 35 68 37 106 7z"/>
<path d="M12750 18909 c-61 -27 -106 -73 -141 -141 -54 -107 -74 -240 -48
-319 41 -120 191 -184 301 -128 42 21 98 75 98 94 0 5 -24 23 -54 38 l-53 28
-31 -30 c-17 -17 -37 -31 -46 -31 -32 0 -66 20 -81 49 -14 29 -21 112 -10 123
3 3 74 -16 158 -42 84 -27 155 -46 158 -44 13 7 34 131 33 194 -1 106 -58 188
-148 215 -65 19 -82 19 -136 -6z m135 -134 c21 -20 25 -34 25 -80 0 -30 -4
-55 -8 -55 -12 0 -174 49 -179 54 -8 8 27 65 53 85 36 28 79 27 109 -4z"/>
<path d="M6285 18868 c-27 -12 -51 -23 -53 -24 -2 -1 21 -60 51 -130 30 -71
53 -130 52 -132 -1 -1 -22 3 -47 9 -156 42 -258 -111 -202 -302 60 -202 191
-322 317 -288 51 14 101 65 114 116 l10 38 16 -39 c10 -23 22 -36 29 -33 92
36 99 40 93 56 -37 104 -313 751 -320 750 -5 0 -32 -9 -60 -21z m84 -411 c40
-37 91 -158 91 -217 0 -44 -5 -56 -29 -81 -58 -58 -125 -25 -183 91 -30 59
-38 87 -38 128 0 65 12 90 53 107 36 15 68 6 106 -28z"/>
<path d="M6776 18814 c-110 -34 -165 -98 -166 -191 l0 -43 44 0 c62 0 75 7 82
47 7 37 33 59 81 69 26 5 37 1 57 -19 42 -42 34 -58 -59 -121 -112 -76 -130
-102 -130 -187 0 -55 5 -72 28 -107 34 -53 66 -73 121 -79 62 -7 126 25 164
82 l29 44 19 -25 19 -26 58 22 c57 21 58 22 42 43 -26 36 -60 115 -105 247
-59 173 -81 215 -130 240 -46 23 -86 24 -154 4z m194 -407 c0 -77 -85 -124
-137 -75 -48 45 -25 97 72 166 l30 21 17 -37 c10 -20 18 -54 18 -75z"/>
<path d="M13207 18735 c-62 -43 -94 -128 -75 -202 10 -43 50 -86 161 -176 51
-41 58 -64 27 -92 -15 -14 -30 -16 -62 -12 -55 7 -98 52 -98 101 0 33 -2 34
-47 40 -27 4 -56 9 -65 12 -16 5 -18 -2 -18 -48 1 -101 52 -168 160 -209 104
-39 195 -15 253 67 30 43 45 112 33 158 -9 37 -50 80 -137 147 -84 64 -100 97
-59 119 47 25 140 -29 140 -82 0 -21 5 -28 19 -28 10 0 40 -3 66 -7 l48 -6 -6
57 c-8 76 -41 119 -121 157 -82 39 -165 40 -219 4z"/>
<path d="M5730 18622 c-30 -15 -57 -28 -59 -29 -6 -4 51 -123 61 -129 6 -4
102 39 116 51 2 2 -12 32 -30 68 l-33 65 -55 -26z"/>
<path d="M14320 18419 l-62 -129 -26 52 c-36 68 -76 90 -157 86 -77 -5 -137
-44 -191 -125 -113 -170 -125 -347 -29 -432 50 -43 108 -48 187 -16 17 7 17 5
4 -27 l-15 -34 55 -27 55 -27 91 187 c49 104 105 220 123 258 18 39 58 121 89
184 31 62 56 117 56 121 0 4 -12 13 -27 19 -16 6 -42 17 -59 25 l-31 14 -63
-129z m-158 -149 c28 -28 30 -35 26 -85 -6 -66 -57 -174 -99 -209 -80 -67
-165 -31 -163 69 2 78 67 199 128 236 44 27 73 24 108 -11z"/>
<path d="M5823 18412 c-29 -14 -53 -29 -53 -33 0 -4 31 -72 68 -151 38 -78 93
-195 122 -258 30 -63 57 -119 61 -123 5 -7 100 33 118 49 2 1 -19 49 -46 106
-27 57 -85 178 -128 271 -44 92 -82 167 -85 166 -3 0 -29 -12 -57 -27z"/>
<path d="M5518 18270 c-73 -22 -114 -66 -134 -144 l-7 -29 -18 36 -19 35 -55
-30 -56 -30 49 -91 c27 -51 91 -170 142 -264 50 -95 94 -173 96 -173 5 0 106
50 112 55 2 2 -35 75 -81 162 -95 177 -111 220 -102 263 8 36 48 70 84 70 42
0 71 -39 171 -227 51 -95 94 -173 96 -173 5 0 107 50 113 56 4 4 -183 355
-217 407 -41 62 -115 95 -174 77z"/>
<path d="M14545 18151 c-147 -48 -285 -295 -246 -439 23 -84 127 -162 216
-162 43 0 104 25 145 59 l25 21 -50 44 -50 44 -27 -19 c-26 -19 -63 -24 -93
-13 -20 8 -45 56 -45 87 0 31 20 87 31 87 4 0 69 -34 144 -76 75 -42 137 -75
138 -73 65 93 98 245 69 320 -16 42 -64 91 -107 110 -39 18 -111 23 -150 10z
m105 -126 c16 -9 33 -27 36 -41 8 -30 -1 -103 -13 -115 -6 -6 -42 9 -91 37
-67 38 -80 49 -73 63 13 23 42 48 71 60 34 13 37 13 70 -4z"/>
<path d="M5042 17997 c-28 -18 -52 -36 -52 -41 0 -5 38 -70 84 -145 133 -215
140 -234 111 -291 -28 -53 -77 -65 -119 -27 -14 12 -73 99 -132 192 -58 94
-109 170 -112 170 -14 0 -102 -57 -102 -67 0 -19 225 -372 258 -406 39 -39 69
-52 119 -52 79 0 149 65 160 150 l6 42 20 -34 c12 -18 22 -34 23 -36 3 -4 104
59 104 65 0 4 -277 455 -304 495 -10 15 -17 13 -64 -15z"/>
<path d="M15250 17788 c-74 -106 -181 -260 -238 -341 -57 -82 -102 -150 -100
-151 27 -23 293 -203 322 -218 167 -86 385 122 312 296 l-14 34 39 5 c72 9
148 86 170 170 16 59 0 129 -39 171 -24 25 -304 226 -315 226 -2 0 -64 -87
-137 -192z m260 -63 c43 -30 81 -62 84 -71 14 -35 5 -73 -23 -103 -44 -47 -79
-43 -178 25 l-83 56 52 74 c28 41 56 74 61 74 5 0 44 -25 87 -55z m-185 -275
c117 -88 131 -136 60 -207 -48 -48 -75 -44 -184 27 -50 33 -91 62 -91 66 0 13
116 173 125 174 6 0 46 -27 90 -60z"/>
<path d="M4484 17649 c-57 -16 -114 -103 -114 -171 0 -15 -4 -16 -26 -8 -96
37 -204 -40 -204 -146 l0 -38 -27 32 -28 32 -47 -36 -47 -36 38 -51 c84 -116
185 -252 251 -342 l70 -95 50 37 c28 21 50 40 50 44 0 4 -45 67 -99 141 -55
74 -109 152 -120 174 -29 53 -27 99 4 129 51 52 74 34 231 -180 64 -88 118
-162 120 -164 4 -5 104 69 104 77 0 4 -48 72 -107 152 -111 153 -133 191 -133
238 0 37 33 72 70 72 34 0 67 -37 209 -232 51 -71 98 -128 103 -128 6 0 29 14
52 32 22 17 43 33 45 35 12 9 -281 395 -315 415 -39 22 -92 29 -130 17z"/>
<path d="M15808 17321 c-15 -5 -41 -19 -58 -31 l-30 -22 37 -47 c37 -46 38
-47 66 -33 35 17 66 10 100 -24 32 -31 34 -63 8 -95 l-19 -24 -79 34 c-150 64
-206 65 -273 5 -127 -115 -75 -290 90 -302 33 -2 60 -6 60 -8 0 -1 -4 -14 -9
-27 -9 -22 -4 -29 39 -66 l49 -41 25 52 c14 29 64 100 111 158 160 196 183
242 154 317 -14 37 -85 110 -131 134 -44 23 -104 31 -140 20z m-33 -327 c36
-14 65 -30 65 -35 0 -6 -17 -28 -38 -50 -48 -51 -102 -62 -144 -29 -44 34 -35
110 15 130 31 12 30 13 102 -16z"/>
<path d="M3766 17086 c-48 -18 -101 -68 -129 -121 -88 -170 109 -455 315 -455
146 0 252 118 235 263 -14 112 -106 241 -212 294 -61 31 -153 40 -209 19z
m139 -135 c85 -39 163 -158 151 -226 -8 -40 -57 -85 -92 -85 -40 0 -90 26
-133 69 -93 93 -107 198 -33 244 35 21 58 21 107 -2z"/>
<path d="M16206 16975 c-75 -26 -128 -97 -128 -170 0 -43 36 -127 89 -207 45
-67 5 -118 -67 -88 -60 25 -83 87 -57 150 9 22 -101 89 -114 69 -13 -20 -29
-80 -29 -109 0 -78 70 -179 154 -222 57 -29 150 -22 199 15 60 46 82 85 82
147 0 49 -7 67 -57 156 -62 106 -67 124 -43 144 21 17 55 6 94 -32 29 -29 33
-37 28 -74 -4 -42 -4 -43 43 -68 26 -14 51 -26 54 -26 13 0 36 69 36 105 0 72
-74 165 -164 206 -49 22 -68 23 -120 4z"/>
<path d="M3156 16834 c-94 -34 -170 -134 -183 -241 -7 -64 22 -167 69 -238 49
-76 175 -196 243 -231 149 -79 288 -64 382 39 60 65 75 107 71 192 -3 52 -11
85 -33 128 -15 31 -33 57 -38 57 -5 0 -36 -12 -68 -26 l-58 -26 24 -49 c48
-95 25 -182 -58 -214 -35 -13 -52 -15 -83 -6 -59 16 -132 66 -201 139 -99 103
-132 193 -96 262 37 71 113 97 190 65 19 -8 37 -15 38 -15 2 0 18 26 35 57
l32 57 -22 18 c-29 24 -114 48 -164 47 -23 0 -59 -7 -80 -15z"/>
<path d="M16578 16575 c-56 -21 -119 -67 -175 -129 -68 -74 -96 -135 -97 -213
-1 -53 3 -67 29 -104 17 -23 47 -56 68 -73 36 -29 45 -31 115 -31 49 0 87 6
104 15 l27 15 -35 57 -35 57 -35 -15 c-92 -39 -149 76 -79 161 l25 30 111
-112 c61 -62 114 -113 119 -113 16 0 101 105 126 157 22 45 26 63 22 122 -4
75 -28 118 -90 163 -40 28 -143 35 -200 13z m127 -119 c54 -23 61 -102 13
-153 l-22 -24 -63 63 c-35 34 -63 68 -63 74 0 11 74 54 93 54 4 0 23 -6 42
-14z"/>
<path d="M13774 16195 c-99 -7 -200 -15 -225 -18 -24 -4 -71 -9 -104 -13 -33
-3 -85 -12 -116 -20 -31 -8 -70 -14 -86 -14 -16 0 -33 -4 -39 -9 -5 -5 -36
-11 -69 -14 -33 -4 -82 -13 -110 -20 -27 -8 -72 -20 -100 -27 -27 -7 -59 -16
-70 -21 -11 -4 -33 -10 -50 -13 -74 -13 -95 -19 -95 -26 0 -4 -22 -10 -48 -14
-27 -3 -57 -13 -68 -21 -10 -8 -31 -15 -46 -15 -16 0 -28 -4 -28 -10 0 -5 -11
-10 -24 -10 -13 0 -53 -16 -88 -35 -34 -19 -70 -38 -78 -42 -45 -21 -220 -200
-220 -225 0 -6 -8 -18 -18 -27 -29 -27 -92 -109 -92 -119 0 -6 -6 -17 -13 -24
-21 -21 -77 -106 -77 -116 0 -5 -11 -22 -24 -37 -13 -15 -30 -40 -38 -54 -7
-14 -17 -31 -23 -38 -5 -6 -28 -41 -50 -78 -22 -37 -52 -83 -67 -102 -16 -20
-28 -39 -28 -43 0 -13 -78 -33 -103 -26 -13 3 -55 10 -93 15 -38 6 -87 13
-109 16 -22 3 -65 11 -95 18 -69 15 -605 14 -659 -1 -20 -6 -81 -15 -136 -22
-55 -6 -154 -22 -220 -36 -66 -14 -133 -27 -149 -30 -16 -3 -41 -10 -55 -16
-14 -6 -55 -19 -90 -29 -69 -20 -52 -21 -356 21 -44 6 -107 13 -140 15 -59 4
-120 10 -200 20 -22 2 -92 7 -155 10 -63 3 -135 8 -160 10 -25 3 -191 7 -370
10 -320 4 -680 -5 -955 -25 -77 -6 -189 -13 -250 -16 -60 -4 -114 -10 -120
-14 -5 -4 -41 -10 -80 -14 -79 -7 -238 -30 -365 -52 -47 -8 -95 -17 -107 -18
-12 -2 -26 -7 -32 -10 -5 -3 -58 -15 -118 -26 -176 -32 -296 -59 -328 -74 -16
-8 -77 -24 -135 -36 -58 -12 -129 -30 -158 -41 -29 -10 -64 -19 -77 -19 -13 0
-26 -4 -29 -8 -3 -5 -31 -14 -63 -21 -31 -8 -64 -17 -73 -21 -23 -13 -110 -40
-157 -50 -23 -5 -50 -14 -60 -19 -10 -5 -44 -17 -75 -27 -32 -9 -58 -21 -58
-25 0 -5 -13 -9 -29 -9 -17 0 -33 -4 -36 -10 -3 -5 -17 -10 -31 -10 -13 0 -24
-4 -24 -10 0 -5 -8 -10 -18 -10 -28 0 -142 -41 -142 -51 0 -5 -11 -9 -25 -9
-14 0 -25 -4 -25 -10 0 -5 -6 -10 -14 -10 -22 0 -105 -38 -123 -56 -24 -23
-31 -84 -22 -172 5 -42 11 -120 15 -172 3 -52 10 -109 16 -127 5 -18 14 -101
20 -185 5 -84 14 -209 18 -278 5 -69 13 -177 18 -240 19 -206 25 -836 13
-1170 -7 -173 -14 -324 -15 -335 -10 -70 -17 -141 -21 -215 -3 -47 -9 -156
-15 -243 -5 -86 -12 -163 -17 -170 -4 -6 -11 -50 -15 -97 -3 -47 -11 -130 -17
-185 -6 -55 -13 -134 -16 -175 -10 -131 -36 -380 -56 -530 -10 -80 -28 -215
-40 -300 -11 -85 -27 -186 -34 -225 -8 -38 -17 -97 -19 -130 -3 -33 -13 -96
-22 -140 -8 -44 -19 -105 -24 -135 -4 -30 -11 -62 -14 -70 -3 -8 -15 -67 -26
-130 -10 -63 -26 -146 -35 -185 -9 -38 -20 -92 -26 -120 -5 -27 -18 -84 -28
-125 -10 -41 -27 -111 -37 -155 -9 -44 -21 -84 -26 -90 -4 -5 -8 -24 -8 -42 0
-18 -4 -41 -9 -51 -14 -28 -32 -99 -57 -232 -4 -19 -11 -40 -16 -47 -5 -7 -20
-54 -33 -105 -13 -51 -31 -120 -40 -153 -10 -33 -24 -82 -31 -109 -8 -28 -17
-59 -20 -69 -6 -19 -3 -20 60 -14 36 3 73 4 81 1 17 -7 21 -54 5 -54 -5 0 -10
-5 -10 -11 0 -7 -8 -19 -18 -28 -10 -9 -37 -46 -60 -82 -24 -37 -52 -75 -62
-84 -11 -10 -20 -22 -20 -27 0 -9 -10 -22 -45 -61 -11 -12 -38 -47 -60 -77
-22 -30 -42 -57 -45 -60 -8 -8 -110 -160 -110 -165 0 -5 -25 -37 -46 -59 -6
-7 -15 -22 -18 -34 -4 -12 -12 -22 -17 -22 -5 0 -9 -7 -9 -15 0 -8 -4 -15 -10
-15 -5 0 -10 -9 -10 -19 0 -10 -7 -21 -15 -25 -8 -3 -15 -10 -15 -17 0 -6 -9
-23 -19 -38 -38 -53 -143 -274 -148 -310 -3 -21 0 -48 6 -59 11 -21 13 -21 99
25 48 25 89 49 90 54 2 5 9 9 16 9 13 0 154 69 177 86 8 6 33 16 56 24 23 7
44 18 47 25 2 7 25 21 51 30 46 18 47 18 68 -3 l21 -22 -18 -92 c-23 -118 -15
-181 25 -186 29 -3 65 32 119 118 19 30 40 59 47 63 7 4 13 15 13 22 0 8 5 15
10 15 6 0 10 7 10 15 0 9 7 18 15 21 8 4 15 15 15 25 0 10 3 19 8 19 4 0 28
32 52 70 25 39 59 89 76 113 17 23 38 56 47 72 8 17 27 41 41 54 14 14 26 30
26 38 0 7 5 13 10 13 6 0 10 7 10 15 0 8 4 15 10 15 5 0 12 11 16 25 3 14 10
25 15 25 5 0 9 6 9 13 0 7 9 18 20 25 11 7 20 16 20 22 0 5 27 54 60 109 33
55 60 105 60 111 0 5 3 10 8 10 4 0 16 18 26 40 11 22 23 40 28 40 4 0 8 5 8
12 0 6 11 26 25 44 14 18 25 40 25 48 0 9 4 16 8 16 4 0 30 45 57 100 48 99
50 100 85 100 19 0 48 7 64 15 23 12 31 13 37 3 6 -9 16 -9 46 0 35 11 236 39
443 62 47 5 96 12 110 16 40 10 274 32 565 53 278 21 376 26 650 37 188 7 173
14 230 -116 20 -47 48 -106 61 -132 13 -27 24 -55 24 -63 0 -8 5 -15 10 -15 6
0 10 -4 10 -10 0 -18 98 -175 156 -250 32 -41 98 -114 147 -162 91 -89 112
-100 287 -161 71 -25 358 -84 484 -99 82 -11 457 -13 666 -4 63 2 360 5 660 6
300 1 581 5 625 11 44 5 204 14 355 19 298 11 471 31 598 69 18 5 33 9 35 9 1
-1 22 6 47 14 25 9 82 28 128 42 50 15 95 36 114 53 72 65 160 158 169 177 14
32 33 60 47 69 6 4 12 13 12 19 0 6 14 38 31 72 44 86 95 272 84 307 -3 10 -1
20 4 23 6 4 8 13 5 21 -3 7 7 27 23 42 31 32 42 33 519 63 83 5 157 12 165 14
18 7 411 25 804 37 490 16 1577 21 1586 8 4 -6 12 -8 18 -5 15 10 14 51 -1 68
-16 17 -38 78 -38 106 0 12 -4 22 -10 22 -5 0 -10 9 -10 19 0 11 -4 22 -9 26
-5 3 -13 30 -16 60 -4 31 -11 58 -16 61 -5 3 -9 17 -9 32 0 15 -7 47 -16 72
-23 67 -44 194 -84 520 -14 117 -39 286 -50 340 -5 25 -16 101 -25 170 -9 69
-20 150 -25 181 -6 30 -10 69 -10 86 0 16 -4 43 -10 59 -5 16 -12 47 -14 69
-3 22 -10 72 -15 110 -10 70 -31 238 -36 285 -1 14 -5 32 -8 40 -3 8 -10 62
-17 120 -6 58 -13 119 -16 135 -10 66 -25 193 -30 244 -2 29 -6 57 -9 61 -19
31 -26 223 -25 689 0 455 4 581 24 786 2 22 9 119 15 215 6 96 14 200 16 230
3 30 8 87 11 125 5 73 19 172 29 215 4 14 8 41 9 60 4 47 15 117 33 220 8 47
17 110 19 140 3 30 9 64 14 75 5 11 11 40 14 65 2 25 12 86 21 135 9 50 18
106 21 125 9 68 27 155 34 165 4 6 11 34 15 63 7 56 -3 78 -47 95 -10 3 -18
11 -18 17 0 5 -7 10 -15 10 -8 0 -15 4 -15 8 0 5 -12 15 -27 23 -16 8 -30 16
-33 19 -14 14 -102 70 -110 70 -6 0 -10 5 -10 10 0 6 -4 10 -9 10 -5 0 -37 18
-70 40 -33 22 -62 40 -65 40 -3 0 -34 18 -68 40 -35 22 -69 40 -75 40 -7 0
-13 5 -13 10 0 6 -9 10 -19 10 -11 0 -22 4 -25 9 -7 11 -88 51 -104 51 -7 0
-12 5 -12 10 0 6 -9 10 -20 10 -11 0 -20 5 -20 10 0 6 -11 10 -25 10 -14 0
-25 5 -25 10 0 6 -5 10 -10 10 -6 0 -30 9 -52 20 -23 11 -50 20 -60 20 -10 0
-18 3 -18 8 0 10 -36 25 -150 62 -52 17 -99 36 -104 41 -6 5 -22 9 -36 9 -14
0 -30 4 -36 8 -12 10 -66 27 -134 42 -30 7 -63 16 -72 21 -10 5 -29 9 -43 9
-14 0 -25 4 -25 9 0 5 -12 11 -27 15 -94 20 -141 29 -248 47 -134 22 -292 45
-375 54 -30 3 -167 8 -305 11 -137 3 -260 7 -272 10 -19 3 -23 11 -23 39 0 18
5 37 10 40 6 3 10 17 10 29 0 13 11 49 25 80 14 31 25 62 25 69 0 7 10 24 23
37 12 14 30 41 41 59 21 37 22 39 121 139 99 101 111 112 121 112 6 0 28 9 49
20 22 12 65 28 95 37 30 8 57 20 61 24 3 5 25 13 50 18 24 6 69 17 99 26 30 8
67 15 82 15 16 0 36 4 46 9 24 13 79 26 217 51 233 43 313 60 341 75 16 8 40
15 53 15 13 0 40 4 60 9 20 5 71 17 114 27 42 9 80 20 83 25 3 5 32 9 64 9 32
0 61 4 64 9 3 5 40 12 83 16 108 10 184 32 211 60 12 13 22 29 22 35 0 5 5 10
10 10 6 0 10 40 10 100 0 92 -2 103 -23 124 -12 12 -36 27 -52 33 -41 14 -368
13 -591 -2z m356 -150 c11 -13 10 -19 -7 -38 -12 -12 -28 -37 -37 -54 -18 -36
-19 -36 -161 -59 -144 -22 -330 -52 -405 -65 -36 -6 -87 -15 -115 -19 -73 -13
-105 -21 -111 -31 -3 -5 -15 -9 -26 -9 -12 0 -35 -4 -52 -9 -17 -5 -60 -17
-96 -27 -36 -9 -110 -31 -165 -49 -55 -18 -133 -43 -172 -55 -40 -13 -73 -26
-73 -30 0 -4 -15 -11 -34 -14 -19 -4 -39 -13 -46 -21 -7 -8 -18 -15 -25 -15
-6 0 -37 -22 -68 -49 -31 -27 -59 -51 -64 -52 -11 -5 -115 -137 -140 -179 -12
-19 -34 -66 -49 -105 -15 -38 -33 -77 -41 -86 -7 -8 -13 -19 -13 -23 0 -4 -24
-45 -53 -89 -29 -45 -56 -89 -60 -97 -4 -8 -21 -35 -37 -60 -16 -25 -41 -67
-56 -95 -15 -27 -39 -66 -55 -86 -16 -20 -40 -58 -54 -85 -14 -27 -38 -67 -55
-89 -16 -22 -39 -60 -51 -85 -12 -25 -25 -47 -29 -50 -9 -6 -71 -106 -90 -145
-8 -16 -25 -44 -37 -61 -13 -17 -23 -36 -23 -42 0 -7 -3 -12 -8 -12 -4 0 -16
-17 -27 -37 -11 -21 -36 -63 -56 -93 -20 -30 -48 -76 -62 -102 -14 -25 -36
-63 -49 -85 -14 -21 -28 -45 -31 -53 -4 -8 -15 -28 -26 -45 -21 -35 -53 -91
-88 -154 -13 -25 -35 -64 -49 -86 -13 -22 -34 -60 -46 -85 -12 -25 -24 -47
-28 -50 -12 -11 -58 -87 -64 -107 -4 -12 -12 -26 -19 -31 -7 -5 -81 -13 -164
-17 -139 -6 -154 -5 -159 10 -4 9 -3 20 3 24 5 3 18 22 29 41 10 19 22 37 25
40 8 8 49 99 49 110 0 5 5 10 10 10 6 0 10 9 10 19 0 11 6 26 14 34 8 8 23 30
33 49 10 20 34 60 53 90 19 30 41 63 48 74 6 10 16 28 21 39 5 12 16 27 25 34
9 7 16 18 16 24 0 6 32 59 70 118 39 59 70 110 70 114 0 4 16 30 35 56 19 27
35 54 35 60 0 6 13 28 29 48 15 20 39 56 51 81 13 25 40 70 61 101 21 31 41
68 45 83 3 14 9 26 13 26 4 0 18 19 31 43 12 23 34 62 48 87 14 25 36 65 50
90 13 25 28 50 32 55 4 6 29 51 54 102 25 51 51 95 56 98 6 3 10 15 10 26 0
10 4 19 8 19 5 0 17 19 27 43 11 23 28 55 39 72 12 16 34 55 50 85 38 72 47
87 77 135 14 22 37 60 51 85 33 60 130 209 156 240 87 103 129 149 140 149 6
1 12 5 12 9 0 12 101 61 159 77 25 7 89 21 141 30 52 9 103 21 112 26 10 5 31
9 48 9 16 0 62 7 102 15 126 25 230 43 318 55 47 6 117 18 155 25 73 15 121
21 265 35 47 5 141 14 210 20 69 7 128 16 132 19 5 4 36 8 71 9 48 2 67 -1 77
-13z m-2672 -1280 c24 -4 46 -13 48 -20 5 -11 -60 -152 -75 -165 -4 -3 -18
-27 -32 -55 -36 -70 -51 -96 -71 -119 -10 -11 -21 -29 -24 -40 -4 -11 -13 -26
-20 -34 -15 -14 -84 -129 -84 -139 0 -4 -6 -14 -14 -22 -7 -9 -26 -41 -42 -71
-16 -30 -31 -57 -35 -60 -3 -3 -12 -18 -21 -35 -35 -70 -64 -121 -73 -132 -5
-7 -16 -19 -22 -27 -7 -8 -13 -19 -13 -25 0 -16 -91 -22 -197 -12 -56 5 -107
13 -114 17 -12 7 -80 16 -269 34 -79 8 -328 37 -338 39 -7 2 1 218 9 238 4 12
13 120 20 240 7 120 16 228 20 241 5 12 21 27 36 33 16 6 37 15 48 20 11 4 34
10 50 13 17 2 64 12 105 20 143 30 165 33 270 45 58 7 128 16 155 20 58 10
620 7 683 -4z m-2588 -29 c135 -8 252 -17 260 -20 15 -6 176 -23 302 -33 49
-3 71 -10 84 -24 17 -19 16 -20 -4 -39 -12 -11 -28 -20 -37 -20 -8 0 -15 -4
-15 -8 0 -4 -23 -16 -50 -26 -28 -10 -56 -23 -63 -30 -7 -6 -34 -22 -62 -36
-27 -14 -59 -33 -69 -42 -11 -10 -28 -18 -38 -18 -10 0 -18 -4 -18 -8 0 -5
-27 -23 -60 -42 -33 -19 -60 -37 -60 -42 0 -4 -7 -8 -15 -8 -8 0 -15 -4 -15
-10 0 -5 -7 -10 -15 -10 -8 0 -15 -4 -15 -9 0 -6 -18 -20 -40 -32 -22 -13 -40
-26 -40 -31 0 -4 -6 -8 -12 -8 -7 -1 -42 -23 -78 -50 -36 -28 -71 -50 -77 -50
-7 0 -13 -4 -13 -10 0 -5 -21 -24 -47 -42 -27 -17 -53 -37 -59 -43 -6 -6 -39
-28 -73 -50 -33 -21 -61 -43 -61 -47 0 -4 -5 -8 -10 -8 -6 0 -37 -17 -68 -37
-31 -21 -71 -45 -87 -53 -17 -8 -33 -19 -37 -24 -3 -5 -37 -13 -75 -17 -64 -8
-237 -29 -383 -49 -131 -17 -280 -65 -280 -89 0 -6 -8 -11 -19 -11 -10 0 -44
-11 -75 -25 -43 -19 -60 -33 -73 -59 -15 -32 -15 -41 0 -117 9 -45 30 -109 47
-142 16 -33 30 -73 30 -88 0 -15 5 -31 10 -34 17 -10 11 -47 -9 -64 -11 -9
-38 -32 -61 -51 -23 -19 -67 -59 -98 -87 -31 -29 -60 -53 -64 -53 -4 0 -8 -7
-8 -15 0 -8 -5 -15 -12 -15 -7 0 -32 -22 -57 -49 -81 -85 -135 -146 -161 -180
-14 -18 -37 -45 -51 -61 -14 -15 -36 -42 -50 -60 -51 -68 -90 -116 -119 -150
-17 -19 -30 -40 -30 -46 0 -7 -6 -19 -14 -27 -16 -16 -86 -123 -86 -132 0 -3
-16 -29 -35 -58 -19 -28 -35 -59 -35 -67 0 -8 -9 -26 -20 -40 -11 -14 -20 -28
-20 -31 0 -4 -23 -56 -51 -115 -76 -162 -87 -187 -92 -209 -5 -19 -20 -64 -37
-110 -5 -11 -15 -36 -24 -57 -9 -20 -16 -43 -16 -52 0 -9 -16 -57 -36 -108
-20 -51 -42 -109 -49 -128 -7 -19 -27 -64 -44 -100 -17 -36 -31 -70 -31 -76 0
-6 -7 -17 -15 -24 -8 -6 -28 -42 -45 -78 -32 -67 -42 -89 -100 -217 -17 -38
-51 -128 -75 -200 -40 -120 -105 -294 -124 -333 -28 -56 -51 -115 -51 -128 0
-9 -7 -28 -15 -42 -17 -33 -58 -133 -91 -227 -14 -38 -34 -90 -46 -115 -11
-25 -31 -72 -43 -105 -13 -34 -40 -96 -59 -138 -50 -106 -105 -243 -121 -297
-7 -25 -20 -58 -29 -75 -9 -16 -16 -36 -16 -43 0 -11 -20 -54 -76 -164 -8 -14
-14 -36 -14 -47 0 -12 -4 -21 -10 -21 -5 0 -10 -9 -10 -19 0 -11 -4 -22 -8
-25 -5 -3 -37 -70 -72 -148 -35 -79 -72 -155 -82 -170 -10 -14 -18 -29 -18
-34 0 -9 -191 -397 -199 -404 -3 -3 -19 -31 -36 -63 -16 -32 -37 -66 -45 -76
-8 -9 -24 -34 -35 -56 -11 -22 -27 -47 -36 -55 -8 -8 -32 -43 -54 -77 -36 -60
-65 -94 -65 -78 0 5 15 40 34 79 18 39 36 93 40 120 4 27 21 101 36 165 16 64
32 141 36 171 3 30 18 102 31 160 14 58 27 123 30 145 3 22 9 45 13 50 4 6 11
30 15 55 4 25 11 50 15 55 4 6 10 30 12 55 3 25 16 113 30 195 45 263 61 373
88 625 5 47 18 159 30 250 12 91 26 212 30 270 22 256 29 329 39 395 12 76 17
126 30 280 20 233 52 554 61 610 22 137 48 1089 30 1100 -6 4 -10 87 -11 208
-1 111 -5 276 -9 367 -5 91 -13 273 -19 405 -10 244 -36 583 -46 620 -5 15 0
24 17 32 65 32 157 72 191 83 20 6 37 16 37 21 0 5 10 9 23 9 13 0 27 4 33 9
5 5 59 28 119 51 61 23 128 50 150 60 22 9 58 23 80 30 22 7 44 16 49 21 6 5
19 9 31 9 12 0 25 4 31 8 5 5 29 15 54 22 25 8 56 20 70 27 14 7 42 16 63 19
20 4 37 10 37 15 0 5 13 9 29 9 17 0 32 4 36 9 3 6 27 13 53 17 26 3 70 17 98
30 28 13 61 24 73 24 12 0 29 4 39 9 9 5 46 14 82 21 35 6 77 18 92 26 15 8
43 14 62 14 19 0 37 4 41 9 3 6 27 13 53 16 26 4 58 10 72 15 14 4 57 13 95
20 39 6 86 16 105 21 58 16 220 40 305 46 44 3 87 8 95 12 8 4 44 8 80 10 36
1 92 7 125 13 190 33 894 46 1275 24z m4075 -110 c72 -9 153 -21 180 -26 28
-4 70 -11 95 -15 25 -4 54 -11 65 -16 20 -8 203 -56 258 -66 15 -3 30 -9 33
-14 3 -5 20 -9 37 -9 18 0 40 -7 51 -15 10 -8 38 -17 62 -21 24 -3 44 -9 44
-13 0 -4 17 -13 38 -20 59 -20 73 -26 142 -59 36 -18 70 -32 77 -32 6 0 37
-15 70 -33 32 -18 85 -46 118 -62 33 -16 62 -32 65 -35 3 -4 34 -23 70 -44
145 -83 239 -146 364 -243 98 -76 90 -58 71 -175 -10 -57 -21 -123 -26 -148
-5 -25 -16 -97 -24 -160 -9 -63 -20 -129 -26 -146 -5 -17 -9 -52 -9 -79 0 -27
-11 -116 -24 -199 -44 -270 -51 -323 -65 -481 -6 -60 -13 -121 -17 -135 -6
-25 -8 -40 -38 -255 -10 -66 -21 -219 -25 -340 -11 -358 -3 -1025 15 -1160 2
-16 6 -112 9 -213 3 -101 10 -206 15 -234 6 -28 10 -77 10 -109 0 -32 4 -60 9
-64 6 -3 9 -22 9 -43 -1 -20 6 -75 14 -122 9 -47 21 -121 28 -165 6 -44 23
-139 36 -211 13 -72 24 -154 24 -182 0 -28 5 -54 10 -57 6 -3 10 -20 10 -37 0
-17 7 -81 15 -142 8 -61 19 -147 25 -191 10 -76 38 -462 39 -532 1 -30 -2 -33
-29 -33 -17 0 -48 9 -70 20 -21 11 -65 29 -97 40 -32 12 -66 25 -75 31 -31 16
-162 58 -206 65 -23 4 -45 11 -48 15 -3 5 -20 9 -39 9 -19 0 -36 4 -39 9 -14
22 -274 46 -501 46 -227 0 -464 -22 -489 -46 -6 -5 -28 -9 -51 -9 -23 0 -45
-4 -51 -9 -5 -5 -29 -14 -54 -19 -102 -24 -138 -35 -190 -59 -75 -35 -88 -40
-140 -54 -24 -6 -89 -32 -145 -59 -55 -26 -112 -51 -126 -54 -27 -6 -27 -6
-17 36 5 23 18 60 30 83 11 22 24 48 29 57 5 10 9 24 9 32 0 8 6 27 14 43 8
15 19 39 24 53 6 14 22 51 37 83 29 65 66 168 95 267 10 36 26 90 35 120 16
53 77 301 95 385 24 116 70 388 76 450 3 22 9 72 14 110 18 126 40 403 40 503
1 53 5 144 10 202 25 284 22 332 -25 388 -16 19 -40 32 -73 40 -58 13 -157 5
-173 -14 -6 -8 -26 -14 -43 -14 l-32 0 -17 108 c-20 116 -33 233 -45 381 -4
61 -11 96 -19 99 -8 2 -13 23 -13 57 0 32 -8 69 -19 92 -17 35 -34 90 -47 153
-3 14 -17 49 -30 78 -13 29 -24 57 -24 62 0 5 -5 21 -12 37 -52 127 -88 303
-87 421 0 109 39 313 70 374 10 20 19 42 19 48 0 16 107 232 135 274 14 20 25
43 25 49 0 7 6 19 12 25 8 8 13 43 13 93 0 67 -3 82 -18 91 -10 5 -33 22 -51
38 -17 16 -45 32 -62 35 -16 4 -38 10 -49 15 -11 5 -36 11 -55 13 -29 4 -159
37 -310 79 -70 19 -187 39 -288 48 -56 5 -108 12 -114 16 -20 13 -3 101 31
155 17 28 31 57 31 65 0 8 4 14 10 14 5 0 13 12 16 28 4 15 10 29 14 32 4 3
29 43 55 90 26 47 63 108 81 137 19 28 34 56 34 62 0 6 4 11 8 11 4 0 18 19
31 43 47 88 60 110 69 116 5 3 16 20 25 36 8 17 32 48 51 69 35 38 39 39 139
52 136 17 567 11 742 -10z m-3140 -128 c6 -28 8 -49 6 -64 -1 -12 -35 -54 -44
-54 -3 0 -26 -13 -50 -30 -25 -16 -49 -30 -55 -30 -6 0 -12 -4 -14 -8 -1 -4
-33 -23 -70 -42 -37 -18 -76 -41 -87 -51 -10 -9 -43 -28 -72 -40 -30 -13 -55
-27 -57 -31 -2 -4 -9 -8 -16 -8 -7 0 -21 -8 -32 -18 -10 -10 -43 -32 -72 -50
-30 -18 -65 -44 -78 -58 -14 -13 -42 -33 -63 -44 -22 -11 -45 -26 -53 -33 -33
-34 -78 -47 -155 -47 -43 0 -88 3 -100 6 -22 6 -22 7 -6 35 10 16 23 29 30 29
7 0 13 3 13 8 0 13 57 72 70 72 6 0 17 6 24 13 38 36 77 67 85 67 5 0 11 4 13
8 2 5 32 29 68 53 36 24 67 46 70 49 9 9 65 41 83 47 9 3 17 9 17 14 0 5 9 9
20 9 11 0 20 5 20 10 0 6 9 10 20 10 11 0 20 4 20 9 0 5 11 12 24 15 14 3 31
12 38 19 14 14 102 57 117 57 5 0 11 4 13 8 6 14 120 63 171 73 28 5 53 11 55
14 14 14 42 3 47 -17z m-15 -323 c11 -28 2 -241 -11 -266 -7 -14 -41 -17 -261
-21 -159 -3 -258 -1 -266 5 -17 13 18 47 86 81 28 14 52 31 52 36 0 6 9 10 19
10 11 0 21 3 23 8 3 7 35 24 203 108 39 20 81 42 95 49 37 20 49 18 60 -10z
m350 -399 c25 -3 83 -11 130 -16 199 -23 348 -42 390 -51 25 -6 59 -13 75 -16
39 -7 82 -38 90 -64 5 -14 -8 -50 -40 -112 -26 -51 -53 -99 -60 -107 -6 -8
-21 -35 -32 -60 -12 -25 -29 -61 -38 -81 -25 -57 -82 -117 -130 -139 -41 -19
-66 -20 -337 -20 -454 0 -928 32 -1328 90 -41 6 -120 18 -175 25 -55 8 -118
17 -140 20 -22 4 -65 8 -95 11 -30 3 -64 9 -75 14 -11 5 -87 21 -170 35 -249
43 -508 104 -529 126 -6 5 -27 9 -47 9 -28 0 -40 6 -53 26 -10 14 -16 32 -14
40 4 19 122 84 153 84 13 0 27 5 30 10 3 6 17 10 29 10 13 0 77 13 142 29 66
16 139 32 164 35 25 3 68 10 95 16 51 10 336 43 525 60 58 5 215 14 350 20
135 6 256 12 270 14 40 6 770 -1 820 -8z m1625 -230 c44 -9 122 -23 173 -31
108 -17 308 -80 336 -106 17 -15 18 -22 8 -44 -6 -14 -18 -25 -25 -25 -7 0
-81 -22 -163 -49 -82 -26 -194 -58 -249 -71 -55 -12 -109 -26 -120 -31 -23 -9
-68 -17 -143 -26 -29 -3 -55 -9 -58 -14 -3 -5 -41 -9 -84 -9 -43 0 -82 -4 -85
-10 -10 -16 -82 -12 -99 6 -9 8 -16 17 -16 19 0 11 73 156 81 160 5 4 30 48
54 98 25 50 60 107 78 125 l32 34 100 -5 c55 -3 136 -13 180 -21z m-4086 -260
c27 -23 335 -94 576 -132 127 -19 250 -42 275 -49 39 -12 234 -41 490 -75 96
-12 172 -24 284 -44 50 -9 128 -21 175 -27 48 -5 138 -17 201 -25 63 -8 185
-19 270 -25 183 -12 770 -6 885 10 44 6 179 22 300 36 121 14 261 32 311 40
50 8 105 15 122 15 17 0 33 4 36 9 3 5 32 12 63 16 82 10 299 59 423 94 58 17
111 29 118 26 14 -5 16 -45 2 -45 -5 0 -10 -8 -10 -18 0 -10 -4 -22 -8 -28
-24 -27 -76 -188 -91 -284 -24 -148 -20 -190 36 -360 8 -24 21 -89 29 -143 8
-55 20 -109 25 -119 6 -11 8 -26 5 -33 -3 -8 1 -21 9 -29 8 -8 15 -27 15 -43
0 -15 7 -41 15 -57 8 -15 15 -38 15 -50 0 -12 5 -27 10 -32 6 -6 12 -19 15
-30 2 -10 20 -80 39 -154 49 -194 56 -256 57 -525 2 -312 0 -316 -135 -349
-42 -11 -76 -23 -76 -28 0 -4 -13 -8 -30 -8 -16 0 -30 -4 -30 -10 0 -5 -15
-10 -33 -10 -18 0 -37 -4 -43 -10 -8 -8 -36 -16 -179 -51 -22 -6 -53 -13 -70
-15 -16 -3 -43 -12 -60 -19 -16 -7 -66 -20 -110 -29 -94 -19 -214 -44 -270
-57 -55 -12 -250 -43 -500 -80 -405 -59 -1130 -74 -1620 -34 -220 18 -750 89
-795 107 -8 4 -35 9 -60 12 -25 3 -63 10 -85 15 -22 5 -87 18 -145 30 -58 12
-118 26 -135 32 -16 6 -46 15 -65 19 -80 18 -226 62 -235 71 -5 5 -23 9 -40 9
-17 0 -35 4 -41 10 -5 5 -24 10 -41 12 -17 1 -29 6 -27 10 3 4 -1 8 -7 8 -25
0 -159 44 -159 52 0 4 -13 8 -30 8 -16 0 -30 4 -30 8 0 4 -23 16 -51 26 -43
16 -54 25 -69 60 -10 24 -14 45 -9 50 5 6 9 25 9 43 0 18 5 33 10 33 6 0 10
11 10 25 0 14 4 33 9 43 20 38 30 69 36 107 13 80 65 214 101 262 13 17 24 35
24 38 0 4 8 19 19 33 16 24 28 44 70 118 57 103 168 416 210 594 36 149 47
449 23 590 -23 135 -34 185 -47 215 -21 49 -42 129 -38 143 6 16 33 15 52 -2z
m-169 -499 c0 -83 -14 -116 -79 -187 -28 -30 -51 -58 -51 -61 0 -3 -10 -17
-21 -30 -12 -13 -33 -40 -48 -59 -14 -19 -30 -40 -36 -46 -36 -40 -59 -71
-116 -155 -35 -52 -67 -95 -71 -97 -5 -2 -8 -8 -8 -13 0 -5 -16 -31 -35 -58
-19 -26 -35 -53 -35 -60 0 -6 -4 -11 -9 -11 -5 0 -21 -25 -36 -55 -16 -30 -32
-55 -37 -55 -4 0 -8 -6 -8 -14 0 -8 -3 -16 -8 -18 -4 -1 -36 -54 -71 -115 -36
-62 -68 -113 -73 -113 -4 0 -8 -7 -8 -15 0 -20 -32 -85 -42 -85 -4 0 -8 -7 -8
-15 0 -8 -3 -15 -8 -15 -4 0 -16 -20 -27 -45 -11 -25 -23 -45 -27 -45 -5 0 -8
-7 -8 -16 0 -9 -8 -28 -19 -42 -10 -15 -47 -83 -82 -152 -35 -69 -67 -126 -71
-128 -4 -2 -8 -11 -8 -19 0 -13 -10 -36 -61 -135 -5 -10 -9 -25 -9 -33 0 -8
-4 -15 -9 -15 -5 0 -16 -24 -26 -52 -9 -29 -20 -55 -24 -58 -5 -3 -29 -61 -55
-130 -26 -69 -54 -138 -62 -153 -8 -16 -14 -37 -14 -48 0 -10 -4 -19 -8 -19
-4 0 -16 -29 -27 -65 -10 -37 -22 -68 -27 -71 -4 -3 -8 -16 -8 -30 0 -13 -4
-24 -9 -24 -5 0 -11 -12 -14 -27 -5 -24 -20 -68 -80 -233 -3 -8 -17 -51 -31
-95 -14 -44 -37 -115 -51 -157 -14 -42 -25 -81 -25 -87 0 -6 -9 -30 -19 -54
-21 -46 -60 -150 -68 -182 -2 -11 -9 -29 -13 -40 -5 -11 -16 -40 -24 -65 -17
-54 -121 -334 -137 -370 -6 -14 -15 -32 -19 -40 -4 -9 -11 -30 -14 -48 -4 -17
-12 -34 -17 -37 -5 -4 -9 -15 -9 -26 0 -10 -4 -19 -10 -19 -5 0 -10 -11 -10
-25 0 -14 -4 -25 -10 -25 -5 0 -10 -7 -10 -15 0 -8 -4 -15 -9 -15 -5 0 -12
-18 -16 -40 -4 -22 -11 -40 -15 -40 -5 0 -11 -10 -15 -22 -3 -13 -10 -32 -15
-43 -5 -11 -30 -67 -55 -125 -26 -58 -51 -109 -56 -115 -5 -5 -9 -17 -9 -27 0
-10 -4 -18 -10 -18 -5 0 -10 -9 -10 -20 0 -11 -4 -20 -10 -20 -5 0 -10 -8 -10
-17 0 -10 -7 -31 -15 -47 -8 -15 -15 -35 -15 -42 0 -8 -4 -14 -8 -14 -11 0
-62 -103 -62 -124 0 -9 -4 -16 -10 -16 -5 0 -10 -9 -10 -19 0 -11 -4 -21 -8
-23 -11 -4 -62 -108 -62 -125 0 -7 -4 -13 -10 -13 -5 0 -10 -7 -10 -15 0 -15
-18 -55 -84 -180 -20 -38 -36 -75 -36 -82 0 -7 -4 -13 -10 -13 -5 0 -10 -6
-10 -14 0 -7 -20 -49 -44 -92 -23 -44 -46 -89 -50 -101 -4 -13 -13 -29 -20
-35 -11 -12 -42 -67 -70 -125 -6 -13 -14 -23 -18 -23 -5 0 -8 -9 -8 -20 0 -11
-4 -20 -10 -20 -5 0 -10 -9 -10 -20 0 -11 -3 -20 -7 -20 -5 0 -21 -26 -38 -58
-16 -31 -32 -59 -35 -62 -4 -3 -24 -33 -45 -67 -36 -60 -64 -78 -80 -53 -12
20 -50 9 -106 -30 -32 -22 -60 -40 -64 -40 -4 0 -28 -17 -54 -38 -25 -21 -64
-48 -85 -61 -34 -19 -41 -20 -53 -8 -12 12 -9 19 21 51 20 20 36 43 36 51 0 8
4 15 9 15 10 0 91 133 91 149 0 6 4 11 9 11 5 0 20 24 34 53 15 29 35 62 47
74 11 12 20 29 20 36 0 8 7 20 15 27 8 7 24 33 35 58 12 26 28 54 37 64 20 22
27 34 77 129 21 41 49 87 61 104 12 16 30 49 40 73 10 23 21 42 25 42 3 0 17
23 29 50 12 28 26 50 31 50 4 0 11 12 15 27 3 15 10 30 14 33 4 3 32 52 61
110 30 58 58 107 62 108 4 2 8 12 8 23 0 10 5 19 10 19 6 0 10 6 10 13 0 7 9
23 20 35 11 12 20 27 20 34 0 7 11 33 24 58 12 25 56 108 96 185 40 77 77 142
81 143 5 2 9 8 9 13 0 16 35 89 42 89 5 0 8 7 8 15 0 8 5 15 10 15 6 0 10 6
10 13 1 6 14 37 30 67 38 72 101 203 126 260 10 25 25 51 32 59 7 7 16 26 19
42 3 16 9 29 14 29 4 0 16 27 26 60 9 33 21 60 25 60 4 0 8 9 8 19 0 11 3 21
8 23 13 6 42 65 42 87 0 12 5 21 10 21 6 0 10 6 10 13 0 7 15 42 33 77 19 36
44 108 57 160 12 52 28 110 36 129 8 18 14 42 14 52 0 11 5 19 10 19 6 0 10
14 10 30 0 17 4 30 9 30 4 0 11 24 14 52 4 29 11 54 17 56 5 2 10 15 10 28 0
13 4 32 9 42 20 39 32 73 70 187 35 106 69 202 117 330 9 22 24 58 35 80 10
22 19 48 19 58 0 9 4 17 9 17 5 0 17 24 26 53 10 28 21 56 26 61 5 6 9 18 9
28 0 10 5 18 10 18 6 0 10 7 10 16 0 9 7 28 15 42 8 15 26 54 40 87 39 90 89
190 98 193 4 2 7 10 7 17 0 18 32 89 43 93 4 2 7 10 7 17 0 7 11 33 25 56 14
24 25 52 25 61 0 9 3 18 8 20 9 4 152 293 152 308 0 5 5 10 10 10 6 0 10 9 10
20 0 11 4 20 9 20 5 0 12 14 16 30 4 17 11 30 16 30 5 0 9 9 9 19 0 11 4 22 9
25 4 3 21 39 37 81 16 41 32 75 36 75 5 0 8 7 8 15 0 8 4 15 9 15 5 0 13 10
16 23 10 33 88 146 139 201 25 27 46 53 46 58 0 4 8 17 18 27 44 48 69 79 75
92 20 42 64 95 142 172 33 32 97 95 143 139 45 45 82 84 82 88 0 4 10 12 23
17 31 14 37 1 37 -80z m-175 -664 c-4 -10 -13 -45 -20 -78 -15 -64 -98 -311
-109 -322 -3 -3 -6 -18 -6 -32 0 -14 -7 -35 -15 -45 -8 -11 -15 -30 -15 -42 0
-13 -4 -26 -10 -29 -5 -3 -10 -17 -10 -31 0 -13 -4 -24 -9 -24 -5 0 -13 -14
-16 -32 -4 -18 -11 -39 -16 -48 -14 -27 -22 -51 -33 -100 -5 -19 -12 -39 -16
-45 -4 -5 -22 -50 -39 -100 -18 -49 -38 -93 -44 -97 -22 -14 -52 -8 -77 15
-32 28 -147 87 -171 87 -14 0 -19 7 -19 25 0 24 3 33 28 82 7 13 12 31 12 40
0 27 121 255 156 294 8 8 14 20 14 25 0 5 9 16 20 24 11 8 20 20 20 26 0 6 11
20 25 30 14 10 25 24 25 30 0 5 14 23 30 39 17 16 30 33 30 37 0 20 249 288
269 288 2 0 0 -8 -4 -17z m-683 -1065 c9 -18 28 -96 43 -173 15 -77 31 -158
36 -180 36 -151 58 -267 65 -343 4 -34 11 -65 15 -68 5 -3 9 -18 9 -33 0 -15
6 -68 14 -117 18 -110 34 -224 41 -288 4 -27 8 -52 10 -55 1 -3 11 -57 20
-120 9 -62 20 -123 25 -135 4 -11 13 -50 19 -86 28 -169 62 -337 71 -352 6
-10 10 -31 10 -47 0 -17 5 -33 10 -36 6 -3 10 -23 10 -44 0 -20 5 -42 11 -48
6 -6 13 -38 16 -72 3 -34 10 -64 14 -67 5 -3 9 -18 9 -35 0 -16 4 -37 10 -47
5 -9 18 -82 29 -162 37 -268 41 -347 20 -361 -8 -5 -117 -9 -244 -9 -261 0
-611 -17 -637 -31 -10 -5 -51 -9 -91 -9 -40 0 -77 -4 -82 -9 -6 -5 -39 -12
-75 -14 -36 -3 -92 -10 -125 -15 -265 -44 -329 -52 -377 -43 -12 2 -10 39 2
46 6 3 10 13 10 21 0 8 16 40 35 70 20 31 49 90 66 132 36 92 46 118 65 155 8
16 14 35 14 43 0 8 5 14 10 14 6 0 10 14 10 31 0 17 6 43 14 57 7 15 18 38 23
52 6 14 22 51 36 83 15 31 27 64 27 72 0 9 4 23 9 33 24 44 51 110 51 123 0 8
4 19 9 25 4 5 20 43 35 84 15 41 33 89 40 105 7 17 18 41 24 55 5 14 17 41 26
62 9 20 16 45 16 56 0 12 5 24 10 27 6 3 10 13 10 20 0 8 13 43 29 77 15 35
52 133 81 218 29 85 56 159 61 165 5 5 9 20 9 35 0 25 30 113 43 126 4 4 7 18
7 31 0 13 4 31 9 41 14 28 33 84 47 142 8 30 21 76 30 102 17 52 80 287 95
357 15 72 51 175 80 233 5 10 9 23 9 29 0 13 29 78 43 97 15 19 23 15 39 -20z"/>
<path d="M17573 15597 c-25 -36 -32 -122 -13 -158 16 -30 64 -49 123 -49 52 0
55 1 71 34 9 19 16 59 16 89 0 47 -3 57 -26 73 -14 10 -32 25 -39 32 -8 6 -35
12 -62 12 -43 0 -50 -3 -70 -33z"/>
<path d="M17886 15607 c-3 -12 -14 -32 -26 -44 -46 -50 -3 -130 83 -151 25 -7
52 -9 60 -6 27 10 42 55 40 121 -2 83 -22 103 -98 103 -47 0 -54 -3 -59 -23z"/>
<path d="M18220 15593 c-38 -6 -61 -46 -63 -107 -1 -59 15 -83 70 -105 28 -11
37 -11 70 5 41 21 50 42 52 114 1 51 -3 58 -41 83 -27 17 -38 18 -88 10z"/>
<path d="M17285 15578 c-16 -6 -35 -17 -43 -24 -65 -65 -37 -297 45 -374 52
-50 101 -69 157 -63 36 4 46 10 46 23 0 10 6 20 13 23 17 5 16 157 -2 191 -11
20 -12 28 -1 41 8 10 9 15 1 15 -6 0 -11 9 -11 20 0 11 -4 20 -9 20 -5 0 -12
8 -16 19 -7 22 -72 92 -102 109 -27 14 -38 14 -78 0z"/>
<path d="M18480 15454 c-37 -20 -50 -43 -50 -89 0 -64 28 -90 96 -89 82 0 99
25 95 139 -1 22 -8 33 -28 43 -34 15 -81 14 -113 -4z"/>
<path d="M2575 15335 c-5 -1 -35 -8 -66 -15 -45 -10 -69 -23 -118 -67 -33 -30
-68 -71 -78 -91 -9 -20 -19 -39 -22 -42 -14 -12 -31 -51 -31 -69 0 -11 -4 -22
-10 -26 -5 -3 -12 -33 -16 -66 -4 -32 -11 -62 -15 -65 -16 -9 -10 -226 7 -285
19 -66 37 -109 45 -109 4 0 12 -13 19 -30 7 -16 16 -30 20 -30 10 0 72 -130
103 -215 30 -84 52 -280 43 -380 -9 -109 -17 -159 -27 -169 -5 -6 -9 -18 -9
-28 0 -9 -6 -32 -14 -50 -8 -18 -22 -53 -32 -78 -43 -101 -172 -256 -250 -298
-13 -7 -24 -16 -24 -20 0 -4 -15 -16 -32 -27 -18 -10 -44 -32 -57 -48 -14 -16
-31 -35 -38 -42 -7 -8 -13 -18 -13 -23 0 -6 -7 -12 -15 -16 -8 -3 -15 -12 -15
-21 0 -8 -4 -15 -9 -15 -15 0 -79 -141 -91 -201 -21 -105 16 -331 63 -388 7
-9 19 -29 27 -45 18 -35 105 -111 145 -126 129 -50 259 -53 410 -8 22 6 45 15
50 18 6 4 36 15 68 25 31 10 57 22 57 27 0 4 10 12 23 17 42 16 207 149 207
167 0 3 16 22 35 42 19 20 40 51 46 67 6 17 15 39 19 50 5 11 16 45 25 75 9
30 20 63 26 72 5 10 9 29 9 43 0 14 4 33 9 43 5 9 21 82 35 162 45 265 51 929
12 1300 -13 115 -36 270 -49 325 -3 11 -8 61 -12 110 -4 50 -14 107 -21 128
-8 21 -13 41 -12 45 1 4 -4 21 -11 37 -7 17 -15 44 -18 60 -3 17 -10 35 -14
41 -5 6 -21 34 -36 62 -37 67 -80 120 -112 137 -48 25 -202 51 -236 40z"/>
<path d="M17893 15092 c-24 -2 -43 -7 -43 -13 0 -5 -9 -9 -21 -9 -11 0 -56
-14 -99 -31 -64 -26 -89 -42 -127 -84 -67 -73 -87 -111 -102 -185 -7 -36 -16
-83 -21 -105 -15 -70 -12 -209 5 -241 8 -16 15 -36 15 -45 0 -9 7 -22 15 -29
8 -7 15 -19 15 -28 0 -19 75 -92 115 -112 17 -8 32 -18 35 -21 8 -10 88 -49
101 -49 6 0 23 -8 37 -18 15 -10 56 -27 92 -36 66 -18 159 -59 195 -86 39 -30
169 -161 180 -183 7 -12 22 -39 34 -61 32 -57 69 -157 76 -213 10 -70 8 -269
-3 -333 -10 -55 -32 -123 -56 -170 -46 -88 -55 -109 -61 -140 -4 -19 -13 -38
-19 -42 -7 -5 -7 -8 -1 -8 7 0 8 -22 4 -62 -3 -35 -3 -67 1 -73 4 -5 10 -33
13 -61 6 -53 64 -183 97 -219 11 -12 20 -25 20 -31 1 -16 122 -98 175 -117 69
-26 238 -26 315 -1 115 37 270 154 270 202 0 12 3 22 8 22 11 0 40 77 58 155
19 85 15 204 -22 690 -10 137 -14 159 -44 300 -6 28 -13 74 -17 103 -3 28 -9
52 -13 52 -4 0 -10 28 -13 61 -3 34 -10 66 -16 72 -6 6 -11 21 -11 34 0 13 -4
31 -9 41 -13 27 -28 80 -45 162 -26 125 -56 231 -82 286 -13 28 -24 56 -24 62
0 7 -4 12 -9 12 -5 0 -12 12 -15 26 -4 14 -16 35 -26 47 -11 11 -20 29 -20 39
0 10 -4 18 -10 18 -5 0 -10 5 -10 10 0 6 -5 16 -10 23 -39 45 -50 61 -50 68 0
6 -62 79 -111 130 -24 25 -144 83 -234 113 -44 15 -89 31 -100 36 -11 5 -36
11 -55 14 -19 3 -60 13 -90 21 -51 15 -148 17 -287 7z"/>
<path d="M17133 14373 c-7 -2 -13 -8 -13 -13 0 -4 -16 -25 -35 -46 -19 -21
-35 -46 -35 -55 0 -10 -5 -19 -10 -21 -19 -6 -24 -135 -7 -176 13 -30 24 -65
31 -102 4 -18 27 -40 69 -64 40 -23 56 -27 85 -21 54 10 72 23 89 63 17 42 20
209 3 226 -5 5 -10 21 -10 35 0 92 -104 200 -167 174z"/>
<path d="M720 14262 c-25 -2 -49 -7 -54 -13 -6 -5 -17 -9 -24 -9 -14 0 -55
-39 -92 -86 -44 -55 -100 -191 -120 -287 -36 -169 -48 -238 -59 -327 -6 -47
-15 -120 -21 -163 -5 -43 -10 -95 -10 -117 0 -21 -4 -41 -9 -44 -11 -7 -23
-184 -28 -406 -8 -383 -7 -936 2 -950 5 -8 10 -30 12 -50 2 -19 7 -44 12 -55
5 -11 21 -60 36 -110 21 -70 37 -101 73 -144 26 -31 52 -62 57 -69 10 -13 33
-36 118 -114 22 -21 46 -38 54 -38 7 0 13 -4 13 -9 0 -11 97 -71 116 -71 8 0
14 -4 14 -10 0 -5 7 -10 15 -10 8 0 39 -11 69 -24 65 -29 180 -56 237 -56 64
0 175 41 186 68 3 6 10 12 17 12 6 0 22 14 36 32 14 17 30 36 35 42 10 11 31
61 42 101 4 11 11 23 17 27 16 11 15 340 -1 345 -7 3 -13 13 -13 23 0 25 -49
140 -70 165 -10 11 -23 31 -30 43 -13 26 -42 63 -77 96 -11 12 -53 52 -92 90
-39 38 -71 72 -71 77 0 4 -6 14 -13 21 -18 18 -88 133 -91 149 -1 8 -12 34
-23 59 -46 102 -66 229 -60 375 6 127 15 196 28 210 5 5 9 16 9 25 0 9 11 40
25 68 14 29 25 54 25 57 0 7 86 134 125 185 19 25 35 53 35 63 0 9 5 17 10 17
6 0 10 24 10 54 0 30 5 58 10 61 12 8 13 231 1 271 -5 16 -14 54 -21 84 -30
131 -120 258 -215 305 -53 25 -143 47 -180 42 -11 -1 -40 -3 -65 -5z"/>
<path d="M16826 14203 c-66 -18 -97 -148 -59 -245 21 -54 16 -50 60 -50 70 -1
83 2 83 16 0 8 5 16 10 18 38 12 54 198 22 236 -19 22 -81 35 -116 25z"/>
<path d="M16575 13998 c-36 -20 -55 -47 -55 -77 0 -16 -4 -33 -10 -36 -5 -3
-10 -15 -10 -26 0 -10 5 -19 10 -19 6 0 10 -12 10 -26 0 -34 17 -49 64 -57 21
-3 43 -13 50 -21 10 -13 14 -12 37 8 38 33 50 60 52 119 3 73 -16 112 -64 131
-46 19 -57 19 -84 4z"/>
<path d="M16336 13769 c-14 -17 -26 -37 -26 -45 0 -8 -4 -14 -10 -14 -5 0 -10
-8 -10 -17 0 -26 32 -113 42 -113 4 0 8 -7 8 -15 0 -8 10 -17 23 -19 64 -13
87 -15 87 -6 0 6 7 10 15 10 9 0 16 10 16 25 1 14 2 28 3 33 15 65 16 105 1
135 -30 64 -107 77 -149 26z"/>
<path d="M17035 13559 c-147 -33 -222 -54 -236 -66 -8 -7 -21 -13 -27 -13 -7
0 -24 -10 -39 -22 -54 -44 -189 -187 -203 -215 -8 -15 -29 -48 -46 -73 -17
-25 -44 -70 -60 -100 -16 -30 -32 -56 -36 -58 -5 -2 -8 -10 -8 -18 0 -8 -8
-31 -19 -52 -10 -20 -21 -65 -25 -99 -4 -34 -14 -77 -23 -95 -10 -18 -19 -60
-21 -93 -3 -33 -10 -63 -16 -67 -8 -6 -7 -11 3 -17 9 -6 10 -11 2 -15 -14 -9
-15 -356 -1 -356 6 0 10 -22 10 -50 0 -27 3 -50 8 -50 7 0 28 -71 39 -132 3
-16 9 -28 14 -28 5 0 9 -11 9 -25 0 -14 4 -25 9 -25 5 0 12 -20 15 -45 4 -24
11 -47 15 -50 5 -2 24 -51 42 -107 18 -57 36 -105 40 -108 3 -3 10 -20 14 -37
3 -18 10 -33 13 -33 8 0 27 -44 36 -82 4 -16 11 -28 16 -28 6 0 10 -7 10 -15
0 -14 18 -53 30 -65 11 -11 30 -50 30 -62 0 -7 7 -26 16 -43 8 -16 29 -63 45
-105 17 -41 37 -82 45 -91 8 -8 14 -22 14 -31 0 -8 11 -37 25 -64 14 -27 25
-61 25 -76 0 -16 5 -28 10 -28 6 0 10 -16 10 -35 0 -19 4 -35 9 -35 5 0 19
-20 31 -44 11 -24 27 -47 35 -50 8 -3 15 -11 15 -17 0 -29 126 -129 183 -146
95 -29 245 -3 303 51 16 14 37 29 47 32 9 3 17 9 17 13 0 5 16 26 36 47 19 22
49 66 66 99 30 59 31 62 31 215 1 121 -3 165 -16 200 -9 25 -17 53 -17 63 0
29 -31 117 -41 117 -5 0 -9 5 -9 10 0 14 -46 60 -60 60 -5 0 -10 6 -10 14 0 7
-13 19 -30 26 -35 15 -160 136 -160 156 0 8 -9 19 -20 26 -11 7 -20 18 -20 25
0 7 -4 13 -10 13 -5 0 -10 6 -10 14 0 18 -32 76 -42 76 -5 0 -8 16 -8 35 0 19
-4 35 -8 35 -5 0 -19 45 -32 100 -23 103 -29 283 -11 319 5 9 12 37 15 63 4
26 14 54 22 62 8 8 14 22 14 30 0 9 5 16 10 16 6 0 10 13 10 29 0 16 7 36 15
45 8 8 15 22 15 30 0 9 5 16 10 16 6 0 10 6 10 13 0 6 11 26 25 42 47 57 67
90 101 165 14 30 31 66 39 80 7 14 16 42 20 63 4 20 11 40 16 43 5 3 9 16 9
29 0 13 5 25 10 27 13 4 15 278 3 287 -5 3 -14 28 -21 56 -23 87 -101 172
-188 202 -72 26 -136 33 -189 22z"/>
<path d="M16177 13448 c-17 -34 -26 -126 -13 -146 4 -7 14 -12 22 -12 8 0 14
-4 14 -10 0 -5 18 -10 40 -10 62 0 90 33 90 105 0 30 -4 55 -10 55 -5 0 -10 5
-10 11 0 23 -30 39 -72 39 -39 0 -45 -3 -61 -32z"/>
<path d="M2924 12157 c-26 -13 -44 -60 -44 -116 0 -79 88 -122 139 -67 42 44
26 161 -25 185 -29 13 -41 13 -70 -2z"/>
<path d="M1825 12003 c-37 -20 -64 -50 -71 -80 -4 -13 -10 -23 -14 -23 -4 0
-10 -32 -14 -70 -3 -39 -7 -74 -8 -78 -4 -16 15 -142 21 -142 4 0 12 -15 19
-32 21 -59 105 -86 156 -52 30 19 61 98 76 193 18 112 -14 236 -73 283 -27 22
-53 22 -92 1z"/>
<path d="M2719 11972 c-53 -6 -87 -119 -56 -185 14 -31 45 -47 92 -47 50 0 75
40 75 119 0 51 -4 66 -22 85 -25 25 -49 33 -89 28z"/>
<path d="M2423 11847 c-45 -44 -54 -142 -19 -189 27 -36 97 -44 133 -16 7 5
17 35 24 65 13 65 -1 125 -35 149 -30 20 -77 16 -103 -9z"/>
<path d="M2133 11792 c-36 -28 -51 -67 -47 -127 4 -65 26 -101 70 -114 71 -20
117 15 129 97 7 52 -15 126 -44 149 -23 18 -83 15 -108 -5z"/>
<path d="M295 11220 c-3 -11 -11 -20 -16 -20 -5 0 -9 -27 -9 -60 0 -33 4 -60
10 -60 6 0 10 -9 10 -19 0 -19 58 -61 86 -61 8 0 23 9 34 20 17 17 20 33 20
96 0 71 -2 78 -27 100 -36 31 -99 33 -108 4z"/>
<path d="M483 10998 c-30 -18 -33 -25 -33 -66 0 -111 34 -162 105 -162 39 0
47 4 57 25 6 14 15 25 20 25 4 0 8 27 8 60 0 33 -4 60 -10 60 -5 0 -10 8 -10
18 0 57 -75 79 -137 40z"/>
<path d="M18280 11007 c-32 -15 -70 -52 -70 -69 0 -7 -7 -22 -15 -32 -21 -28
-21 -218 0 -240 8 -8 15 -22 15 -30 0 -9 5 -16 10 -16 6 0 10 -8 10 -18 0 -10
14 -23 33 -31 17 -8 35 -18 38 -23 3 -5 32 -9 63 -9 49 -1 62 3 85 25 15 14
34 51 44 81 19 61 23 200 7 210 -5 3 -10 17 -10 31 0 91 -123 162 -210 121z"/>
<path d="M18680 10951 c0 -5 -10 -11 -22 -13 -37 -5 -61 -59 -53 -121 6 -45
12 -56 39 -75 57 -39 186 -27 186 17 0 6 5 11 10 11 6 0 10 31 10 73 l0 73
-39 22 c-39 22 -131 31 -131 13z"/>
<path d="M1380 10903 c-37 -6 -88 -70 -107 -132 -19 -67 -19 -190 0 -252 28
-90 95 -149 151 -135 30 8 74 49 87 83 5 13 9 40 9 59 0 19 5 34 10 34 6 0 10
35 10 84 0 47 -4 88 -10 91 -5 3 -10 24 -10 45 0 21 -7 45 -15 54 -8 8 -15 17
-15 21 0 16 -59 57 -77 54 -4 -1 -19 -4 -33 -6z"/>
<path d="M2350 10863 c-19 -2 -39 -9 -44 -14 -6 -5 -16 -9 -23 -9 -18 0 -84
-58 -129 -113 -21 -25 -84 -164 -84 -184 0 -10 -5 -24 -11 -30 -14 -14 -13
-228 2 -307 7 -34 21 -86 33 -116 22 -60 74 -150 85 -150 16 0 151 -121 151
-135 0 -4 8 -15 19 -24 33 -29 90 -128 102 -177 6 -27 18 -59 25 -71 8 -12 14
-36 14 -53 0 -16 4 -30 9 -30 10 0 24 -129 24 -215 0 -80 -13 -205 -22 -230
-20 -51 -35 -94 -48 -144 -17 -62 -40 -102 -88 -155 -46 -49 -119 -177 -130
-226 -4 -16 -11 -32 -16 -35 -5 -4 -9 -16 -9 -29 0 -12 -5 -27 -12 -34 -18
-18 -17 -254 2 -314 8 -27 17 -48 21 -48 4 0 10 -16 13 -35 4 -19 11 -35 16
-35 6 0 10 -5 10 -10 0 -6 6 -18 13 -26 80 -96 156 -141 253 -151 53 -6 150 9
186 28 10 5 25 9 33 9 8 0 15 5 15 10 0 6 5 10 11 10 12 0 103 60 107 72 2 4
10 8 18 8 18 0 41 19 135 115 44 44 79 86 79 93 0 6 5 12 10 12 6 0 10 5 10
12 0 6 8 21 19 32 44 49 116 210 126 281 3 22 11 117 17 212 10 150 9 193 -6
335 -10 90 -24 186 -32 213 -7 28 -24 87 -36 132 -13 45 -27 85 -31 89 -4 4
-7 19 -7 34 0 25 -42 185 -59 225 -5 11 -24 63 -41 115 -18 52 -39 109 -46
125 -20 48 -101 258 -108 283 -4 12 -12 22 -17 22 -5 0 -9 9 -9 20 0 19 -18
59 -31 70 -4 3 -10 21 -14 40 -4 19 -11 41 -15 50 -4 8 -12 26 -18 40 -5 14
-22 53 -36 86 -14 34 -26 64 -26 67 0 28 -138 192 -198 235 -33 23 -136 36
-212 25z"/>
<path d="M19038 10862 c-16 -2 -28 -8 -28 -13 0 -5 -6 -9 -14 -9 -36 0 -61
-103 -36 -150 14 -25 66 -50 107 -50 65 0 109 38 119 105 7 53 0 79 -29 98
-25 16 -79 25 -119 19z"/>
<path d="M753 10846 c-30 -14 -48 -60 -47 -122 0 -62 22 -100 64 -109 43 -9
88 3 95 26 4 10 11 19 16 19 5 0 9 28 9 63 0 54 -4 67 -27 94 -31 34 -75 46
-110 29z"/>
<path d="M19373 10742 c-58 -4 -103 -56 -103 -119 0 -24 5 -43 10 -43 6 0 10
-6 10 -13 0 -13 46 -40 87 -52 74 -21 143 42 143 130 0 79 -40 105 -147 97z"/>
<path d="M1004 10726 c-40 -45 -51 -128 -24 -185 24 -48 45 -61 98 -61 66 0
86 24 90 112 4 66 1 80 -19 111 -23 35 -27 37 -79 36 -32 0 -60 -5 -66 -13z"/>
<path d="M19626 10526 c-51 -16 -86 -57 -86 -103 0 -27 8 -43 35 -70 34 -34
36 -34 92 -27 63 8 71 13 97 64 12 24 15 46 11 72 -6 31 -12 39 -41 50 -19 6
-34 16 -34 20 0 11 -27 8 -74 -6z"/>
<path d="M18635 10351 c-3 -6 -19 -11 -35 -11 -33 0 -140 -39 -140 -51 0 -5
-7 -9 -15 -9 -8 0 -15 -4 -15 -10 0 -5 -5 -10 -10 -10 -17 0 -70 -63 -86 -102
-9 -21 -19 -38 -23 -38 -11 0 -31 -46 -48 -110 -19 -67 -18 -216 2 -281 11
-40 56 -122 75 -139 3 -3 17 -21 30 -40 31 -44 56 -69 100 -100 19 -13 42 -31
50 -40 8 -9 34 -29 58 -44 45 -28 142 -124 142 -141 0 -6 9 -17 20 -25 11 -8
20 -20 20 -27 0 -7 4 -13 8 -13 4 0 16 -24 27 -52 10 -29 22 -56 27 -59 4 -3
10 -23 12 -45 3 -21 12 -59 21 -84 24 -66 22 -218 -6 -336 -12 -52 -25 -94
-30 -94 -5 0 -9 -11 -9 -25 0 -25 -30 -98 -42 -103 -5 -2 -8 -10 -8 -18 0 -8
-4 -14 -10 -14 -5 0 -10 -5 -10 -11 0 -12 -56 -85 -125 -165 -47 -54 -81 -127
-90 -189 -14 -101 -16 -183 -6 -190 6 -3 11 -22 11 -41 0 -19 5 -34 10 -34 6
0 10 -11 10 -25 0 -50 71 -174 136 -239 47 -47 124 -96 150 -96 8 0 14 -4 14
-10 0 -5 18 -10 39 -10 22 0 43 -5 47 -11 6 -11 26 -10 147 7 26 4 47 11 47
15 0 5 11 9 25 9 28 0 142 106 168 156 8 16 25 39 36 51 12 12 21 29 21 38 0
8 5 15 10 15 6 0 10 9 10 20 0 11 4 20 9 20 5 0 12 8 15 18 13 47 49 170 56
192 28 84 111 352 120 390 6 25 15 54 20 65 4 11 16 65 25 120 9 55 21 108 26
117 5 10 9 43 9 73 0 30 4 55 9 55 4 0 12 39 16 88 8 85 11 124 21 345 3 59 9
107 15 107 5 0 9 69 9 165 0 103 -4 165 -10 165 -5 0 -10 16 -10 35 0 48 -19
136 -36 162 -8 12 -14 34 -14 48 0 14 -4 25 -10 25 -5 0 -10 11 -10 25 0 14
-4 25 -10 25 -5 0 -12 16 -16 36 -4 20 -16 47 -28 60 -56 65 -116 124 -125
124 -6 0 -11 3 -11 8 0 4 -20 18 -45 32 -25 14 -45 28 -45 31 0 4 -38 26 -85
50 -47 23 -85 46 -85 51 0 4 -12 8 -26 8 -15 0 -43 9 -63 19 -38 21 -189 61
-227 61 -13 0 -25 4 -28 8 -8 13 -223 15 -231 3z"/>
<path d="M17774 9871 c-46 -32 -74 -71 -74 -101 0 -11 -4 -20 -10 -20 -6 0
-10 -45 -10 -116 0 -100 3 -119 18 -133 10 -9 21 -23 24 -32 8 -21 86 -59 123
-59 37 0 90 41 112 88 14 29 18 62 18 158 0 150 -13 181 -91 219 -28 14 -55
25 -61 25 -5 0 -28 -13 -49 -29z"/>
<path d="M17408 9822 c-22 -9 -58 -56 -58 -75 0 -9 -4 -19 -10 -22 -29 -18 1
-96 45 -118 74 -38 147 -29 166 20 6 16 15 36 20 45 12 24 11 78 -1 78 -5 0
-10 7 -10 16 0 45 -93 80 -152 56z"/>
<path d="M17076 9706 c-15 -13 -26 -30 -26 -39 0 -8 -6 -18 -12 -20 -10 -4
-10 -6 0 -6 7 -1 12 -17 12 -45 0 -40 4 -47 34 -65 73 -45 152 -13 163 67 7
49 -3 92 -20 92 -7 0 -18 9 -25 20 -18 30 -93 28 -126 -4z"/>
<path d="M16801 9578 c-24 -25 -31 -40 -31 -73 0 -69 42 -114 107 -115 58 0
83 32 83 109 0 58 -20 91 -55 91 -7 0 -17 5 -20 10 -12 20 -53 9 -84 -22z"/>
<path d="M16603 9375 c-8 -8 -13 -41 -13 -80 0 -51 3 -65 15 -65 8 0 15 -4 15
-9 0 -5 21 -14 47 -20 41 -8 49 -7 58 7 29 49 21 128 -16 165 -22 21 -89 22
-106 2z"/>
<path d="M920 9178 c-13 -5 -27 -12 -30 -16 -3 -4 -18 -14 -34 -22 -83 -43
-160 -159 -176 -266 -5 -32 -17 -86 -26 -119 -14 -49 -18 -106 -19 -315 -1
-140 1 -304 6 -365 4 -60 10 -166 14 -235 4 -69 9 -132 12 -140 4 -8 5 -18 5
-22 -1 -5 3 -41 9 -80 5 -40 12 -89 15 -108 2 -19 11 -80 19 -135 8 -55 19
-140 25 -190 9 -82 37 -185 54 -202 3 -3 6 -17 6 -29 0 -21 17 -68 41 -116 5
-10 9 -24 9 -32 0 -8 3 -16 8 -18 4 -1 21 -30 38 -63 55 -104 69 -129 82 -143
6 -7 25 -33 42 -57 28 -41 119 -115 140 -115 6 0 27 -11 48 -24 180 -118 598
-125 756 -13 40 28 86 75 86 87 0 6 3 10 8 10 4 0 12 10 18 23 6 12 21 40 32
62 39 78 49 216 26 359 -6 35 -46 131 -65 155 -22 27 -39 54 -45 71 -3 8 -27
30 -53 47 -25 18 -56 41 -67 50 -28 25 -72 48 -119 63 -50 15 -145 63 -145 73
0 4 -5 7 -10 7 -12 0 -62 43 -104 89 -17 18 -40 43 -51 55 -11 11 -29 38 -40
59 -11 20 -23 37 -27 37 -5 0 -8 9 -8 20 0 11 -3 20 -8 20 -7 0 -23 41 -45
115 -7 22 -15 45 -19 51 -18 28 -27 229 -16 348 10 110 27 166 96 315 11 24
16 65 16 145 0 147 -6 246 -16 252 -4 3 -8 17 -8 31 0 14 -8 33 -17 42 -10 9
-27 32 -37 51 -35 62 -103 133 -147 152 -16 7 -29 16 -29 20 0 25 -193 37
-250 16z"/>
<path d="M17360 9179 c-167 -34 -211 -45 -265 -69 -22 -10 -57 -24 -77 -30
-21 -6 -38 -16 -38 -21 0 -5 -5 -9 -10 -9 -6 0 -20 -9 -32 -20 -12 -11 -30
-20 -39 -20 -10 0 -32 -14 -51 -31 -66 -61 -98 -94 -98 -100 0 -3 -12 -19 -26
-35 -14 -16 -34 -48 -46 -71 -11 -24 -24 -43 -30 -43 -5 0 -7 -3 -5 -7 3 -5 0
-19 -6 -33 -5 -14 -11 -31 -13 -38 -4 -23 -36 -116 -45 -134 -5 -10 -9 -34 -9
-53 0 -19 -4 -35 -9 -35 -5 0 -13 -25 -16 -55 -4 -30 -11 -58 -16 -61 -5 -3
-9 -20 -9 -38 0 -17 -6 -38 -12 -44 -10 -10 -10 -17 -1 -32 10 -14 10 -19 0
-23 -13 -4 -14 -229 -2 -337 4 -30 9 -95 11 -145 3 -49 9 -99 14 -110 5 -11
11 -65 15 -120 3 -55 10 -101 15 -103 6 -2 10 -60 9 -134 0 -90 3 -133 12
-138 8 -6 8 -9 -2 -13 -10 -4 -11 -8 -3 -14 5 -4 11 -46 13 -93 1 -47 7 -87
12 -91 11 -6 39 -110 39 -144 0 -14 5 -25 11 -25 7 0 9 -9 5 -22 -6 -24 18
-140 35 -171 5 -10 28 -55 51 -100 23 -45 49 -89 60 -98 10 -9 18 -24 18 -33
0 -9 5 -16 10 -16 12 0 32 -15 58 -42 9 -10 24 -18 34 -18 10 0 18 -4 18 -9 0
-19 205 -40 223 -22 6 6 23 11 38 11 42 0 102 37 174 107 45 44 65 72 65 89 0
13 4 24 9 24 5 0 12 15 16 33 3 17 10 41 14 52 29 68 43 256 21 270 -5 3 -10
26 -10 50 0 24 -4 46 -9 49 -5 3 -13 25 -19 49 -6 24 -26 59 -44 78 -54 57
-86 101 -115 156 -16 29 -31 53 -35 53 -5 0 -8 11 -8 24 0 13 -7 43 -15 66 -8
23 -15 58 -15 76 0 19 -4 34 -10 34 -26 0 -1 332 29 389 6 11 11 29 11 40 0
23 54 129 98 192 44 64 129 149 197 199 56 42 155 138 155 151 0 4 13 22 30
40 16 19 30 42 30 52 0 9 5 17 10 17 6 0 10 8 10 17 0 9 6 24 14 32 18 21 47
149 52 236 6 91 -27 213 -71 262 -77 87 -90 96 -177 132 -73 30 -163 37 -248
20z"/>
<path d="M3384 8032 c-15 -9 -36 -88 -30 -110 2 -9 7 -29 10 -43 9 -43 81 -64
120 -34 27 21 35 124 12 147 -9 9 -16 21 -16 26 0 20 -72 30 -96 14z"/>
<path d="M3219 7762 c-27 -24 -32 -36 -36 -93 -5 -63 -4 -67 23 -92 42 -39 92
-37 129 5 25 28 28 39 27 95 -1 64 -8 79 -49 101 -34 19 -60 14 -94 -16z"/>
<path d="M2971 7538 c-37 -50 -40 -91 -11 -147 17 -31 28 -40 56 -45 37 -8 94
17 94 41 0 7 5 13 10 13 6 0 10 25 10 56 0 86 -27 123 -92 124 -31 0 -40 -6
-67 -42z"/>
<path d="M2390 7463 c-8 -3 -32 -23 -54 -45 l-38 -39 4 -112 c5 -124 21 -175
76 -236 27 -32 35 -35 84 -35 56 -1 88 16 88 46 0 8 7 23 15 34 16 22 22 229
6 238 -5 3 -12 22 -16 42 -9 52 -75 114 -118 113 -18 0 -39 -3 -47 -6z"/>
<path d="M2727 7403 c-51 -27 -70 -100 -47 -184 6 -20 18 -40 28 -43 67 -24
76 -25 108 -10 22 11 35 25 39 45 4 16 11 29 16 29 5 0 9 23 9 50 0 28 -4 50
-9 50 -5 0 -12 13 -16 29 -10 46 -73 63 -128 34z"/>
<path d="M2203 6243 c-31 -16 -48 -45 -73 -129 -17 -59 4 -204 38 -258 57 -92
114 -123 175 -95 67 31 93 192 54 337 -6 23 -15 42 -19 42 -4 0 -8 7 -8 15 0
23 -51 76 -87 91 -39 17 -40 17 -80 -3z"/>
<path d="M1084 6104 c-54 -26 -67 -81 -38 -154 l17 -41 56 3 c47 3 58 7 66 26
5 12 13 22 17 22 5 0 8 23 8 50 0 28 -4 50 -10 50 -5 0 -10 5 -10 11 0 35 -62
54 -106 33z"/>
<path d="M1348 5993 c-20 -3 -32 -15 -47 -47 -33 -68 -26 -127 22 -168 35 -31
127 -18 127 17 0 8 5 15 10 15 6 0 10 28 10 65 0 55 -4 70 -22 90 -25 26 -57
35 -100 28z"/>
<path d="M1918 5961 c-45 -31 -57 -54 -58 -109 0 -90 41 -142 112 -142 41 0
65 18 86 63 18 42 15 120 -6 143 -10 10 -21 27 -25 37 -3 9 -14 18 -24 18 -10
1 -28 3 -40 4 -12 1 -33 -5 -45 -14z"/>
<path d="M1608 5922 c-24 -23 -28 -36 -28 -81 0 -92 38 -131 114 -117 28 5 38
14 55 51 31 67 25 110 -26 163 -21 22 -85 14 -115 -16z"/>
<path d="M3825 5764 c-43 -39 -334 -314 -439 -415 l-90 -87 108 -115 c151
-163 217 -191 345 -147 87 29 158 78 236 162 83 90 118 161 123 250 6 92 -14
127 -146 266 l-107 112 -30 -26z m90 -231 c30 -37 56 -76 57 -87 5 -71 -20
-121 -98 -200 -103 -103 -177 -141 -239 -125 -33 9 -150 121 -144 137 5 14
351 341 361 342 4 0 32 -30 63 -67z"/>
<path d="M15670 5335 l-44 -45 47 -48 47 -47 45 45 44 45 -44 48 c-24 26 -46
47 -48 47 -1 0 -23 -20 -47 -45z"/>
<path d="M4259 5293 c-55 -60 -55 -61 -13 -104 21 -21 43 -39 50 -39 7 0 30
22 53 48 l40 49 -42 41 c-24 23 -45 42 -48 42 -3 0 -21 -17 -40 -37z"/>
<path d="M15820 5185 l-43 -44 131 -138 c72 -76 159 -166 194 -201 l64 -62 43
44 44 45 -194 200 c-106 111 -193 201 -194 201 0 0 -20 -20 -45 -45z"/>
<path d="M15487 5171 l-42 -39 20 -23 c11 -13 128 -142 259 -287 l239 -263 44
43 c24 23 42 45 41 49 -6 14 -503 559 -511 559 -4 0 -27 -18 -50 -39z"/>
<path d="M3962 4978 l-191 -203 45 -45 46 -45 114 120 c63 66 149 157 191 203
l77 83 -45 45 -45 45 -192 -203z"/>
<path d="M15306 5007 l-48 -42 247 -292 c217 -256 250 -291 265 -280 9 7 31
24 49 40 29 24 31 30 20 44 -10 13 -433 513 -478 565 -4 4 -29 -11 -55 -35z"/>
<path d="M4578 5004 c-37 -18 -69 -37 -72 -42 -3 -5 6 -19 19 -32 24 -22 27
-22 98 -11 41 7 87 15 102 19 l27 8 -54 46 -53 46 -67 -34z"/>
<path d="M4242 4899 c-144 -71 -231 -248 -182 -369 22 -56 67 -107 116 -130
36 -18 58 -21 112 -18 113 7 203 68 262 180 29 54 34 73 34 133 1 82 -24 139
-77 179 -85 65 -170 73 -265 25z m179 -112 c63 -49 47 -147 -38 -229 -65 -63
-122 -74 -171 -33 -36 30 -46 64 -32 113 11 43 69 116 114 143 35 21 103 25
127 6z"/>
<path d="M15169 4637 c-24 -13 -57 -43 -74 -66 -26 -37 -30 -51 -30 -109 0
-56 6 -79 33 -135 88 -178 250 -257 375 -183 86 50 125 130 107 224 -4 24 -10
45 -13 48 -2 3 -29 -7 -59 -22 l-55 -27 5 -47 c4 -43 2 -50 -22 -66 -15 -9
-40 -17 -57 -16 -34 1 -99 38 -99 56 0 6 49 49 110 95 60 46 115 90 121 97 9
11 -2 27 -49 74 -34 33 -80 69 -104 80 -60 27 -134 26 -189 -3z m152 -110 c19
-12 34 -28 34 -35 0 -12 -122 -112 -137 -112 -12 0 -38 57 -38 85 0 34 50 85
83 85 13 0 39 -10 58 -23z"/>
<path d="M4683 4571 c-47 -34 -73 -84 -73 -138 0 -40 24 -85 104 -198 38 -53
39 -55 21 -75 -29 -32 -71 -26 -112 15 -32 32 -35 40 -31 79 l5 43 -55 27
c-30 15 -56 25 -59 22 -12 -11 -22 -84 -16 -116 14 -82 70 -147 164 -190 50
-22 69 -24 122 -9 51 14 102 61 122 113 23 60 9 106 -63 203 -67 90 -77 110
-61 129 19 23 56 16 94 -17 28 -25 35 -38 35 -69 0 -36 3 -39 51 -60 62 -26
69 -20 69 58 0 65 -17 100 -72 145 -95 77 -175 89 -245 38z"/>
<path d="M14722 4492 c-28 -72 -28 -78 3 -118 30 -40 31 -49 5 -67 -20 -14
-20 -15 11 -58 18 -24 34 -46 36 -48 2 -3 9 1 15 7 25 25 45 8 123 -105 132
-193 154 -212 225 -193 42 11 110 68 110 91 -1 8 -16 32 -36 53 l-34 40 -16
-22 c-22 -32 -48 -27 -81 16 -48 61 -143 201 -143 209 0 4 13 19 30 33 l30 25
-33 47 -34 47 -35 -24 -35 -24 -52 75 c-29 41 -55 74 -59 74 -4 0 -17 -26 -30
-58z"/>
<path d="M5125 4266 c-94 -43 -196 -187 -211 -296 -22 -165 157 -296 303 -221
23 11 45 26 48 32 4 6 -12 30 -35 54 l-42 43 -34 -20 c-30 -18 -38 -19 -65 -7
-44 18 -64 68 -48 117 6 21 15 41 20 46 5 5 60 -25 132 -72 67 -45 128 -82
134 -82 18 0 80 133 88 188 9 65 -8 123 -48 169 -64 73 -153 91 -242 49z m150
-121 c33 -32 33 -104 -1 -143 -1 -2 -37 20 -80 49 l-77 52 36 33 c45 42 87 45
122 9z"/>
<path d="M14524 4182 c-159 -66 -209 -194 -117 -301 57 -67 105 -71 286 -20
56 16 80 6 85 -33 2 -18 -7 -33 -33 -57 -41 -36 -81 -40 -126 -14 l-29 17 -46
-46 -46 -46 47 -27 c67 -40 129 -44 197 -13 135 62 188 166 139 273 -10 23
-33 53 -50 68 -27 23 -42 27 -91 27 -32 0 -86 -9 -121 -19 -94 -28 -118 -30
-135 -14 -20 21 -18 31 15 63 37 38 77 48 112 28 26 -16 28 -15 69 27 48 49
46 59 -14 86 -50 23 -88 23 -142 1z"/>
<path d="M5565 4022 c-48 -23 -69 -45 -90 -95 -32 -76 -16 -120 86 -230 38
-41 69 -82 69 -90 0 -19 -32 -47 -54 -47 -22 0 -55 17 -83 43 -17 15 -23 32
-23 62 0 42 0 42 -57 64 -65 25 -73 21 -73 -47 0 -52 22 -107 58 -146 37 -39
138 -86 186 -86 88 0 171 72 183 158 7 52 -18 98 -107 195 -45 50 -69 84 -66
94 3 8 6 17 6 19 0 12 70 1 97 -16 30 -18 37 -31 45 -84 2 -13 18 -23 48 -32
69 -21 70 -21 70 44 0 77 -33 125 -117 169 -78 42 -127 49 -178 25z"/>
<path d="M6122 4007 c-13 -17 -52 -94 -52 -105 0 -4 25 -20 55 -35 l55 -27 31
61 c16 34 29 62 27 64 -2 1 -26 14 -55 28 -39 20 -53 24 -61 14z"/>
<path d="M14125 3941 c-74 -18 -161 -79 -181 -127 -16 -39 -19 -130 -4 -139 6
-4 33 1 60 10 46 15 49 19 52 53 2 28 10 41 37 59 46 31 75 29 100 -6 l20 -28
-75 -74 c-42 -41 -82 -86 -90 -101 -18 -34 -18 -99 0 -141 18 -44 78 -95 120
-102 70 -14 148 32 181 104 19 44 29 50 39 26 8 -22 31 -19 81 11 l44 25 -39
50 c-21 27 -68 105 -105 175 -78 146 -113 190 -163 204 -20 5 -39 9 -42 9 -3
-1 -18 -4 -35 -8z m155 -311 c27 -53 25 -92 -6 -129 -46 -55 -124 -30 -124 39
0 24 12 42 52 80 29 28 54 50 55 50 1 0 12 -18 23 -40z"/>
<path d="M13517 3869 c-100 -24 -186 -103 -213 -197 -19 -66 -15 -162 11 -237
54 -157 129 -256 230 -306 59 -29 71 -31 137 -27 83 5 136 29 184 80 60 63 83
141 70 232 l-7 46 -47 0 c-82 0 -93 -6 -86 -51 14 -86 -30 -161 -102 -175 -50
-9 -117 19 -152 64 -71 89 -128 245 -116 315 12 76 96 137 165 122 17 -4 46
-20 65 -37 l34 -30 38 31 c66 52 67 55 30 94 -62 65 -159 96 -241 76z"/>
<path d="M5980 3733 c-93 -178 -202 -395 -198 -398 2 -1 26 -14 55 -29 l51
-26 25 43 c30 52 227 443 227 451 0 5 -94 56 -104 56 -2 0 -28 -44 -56 -97z"/>
<path d="M6231 3658 c-49 -33 -72 -69 -78 -121 -9 -76 2 -96 99 -189 87 -83
91 -88 80 -112 -9 -21 -19 -26 -47 -26 -70 0 -115 39 -115 99 0 28 -4 32 -55
46 -30 9 -60 13 -66 9 -20 -12 -3 -112 26 -156 54 -81 183 -134 267 -109 56
17 113 75 128 131 20 73 3 106 -100 202 -63 58 -90 90 -90 106 0 28 19 36 63
28 46 -9 78 -37 86 -77 6 -32 10 -35 61 -45 l55 -10 3 30 c9 80 -23 134 -108
180 -75 41 -162 47 -209 14z"/>
<path d="M12798 3568 c-32 -11 -58 -23 -58 -27 0 -3 41 -125 90 -271 50 -146
90 -279 90 -296 0 -34 -22 -59 -60 -69 -33 -8 -77 25 -96 72 l-14 33 -55 -27
c-30 -16 -55 -34 -55 -41 0 -24 40 -91 75 -125 52 -50 108 -63 180 -42 122 35
177 130 150 257 -14 65 -172 538 -184 549 -3 4 -32 -2 -63 -13z"/>
<path d="M7086 3569 c-149 -35 -210 -230 -110 -348 20 -23 64 -62 100 -87 69
-49 114 -97 114 -120 0 -32 -33 -76 -66 -90 -47 -20 -107 -3 -151 41 -29 29
-33 39 -33 89 l0 55 -37 10 c-95 25 -90 25 -97 -10 -30 -153 41 -268 194 -313
162 -48 283 23 320 188 22 100 -14 173 -130 259 -128 96 -148 126 -114 175 12
17 25 22 60 22 81 0 134 -42 134 -106 0 -41 1 -42 47 -58 84 -29 93 -22 93 67
0 62 -30 128 -74 161 -67 52 -180 81 -250 65z"/>
<path d="M12097 3355 c-27 -7 -51 -16 -54 -18 -2 -3 19 -101 48 -219 90 -367
91 -376 59 -408 -25 -25 -81 -26 -103 -2 -9 10 -23 34 -32 55 l-15 37 -51 -20
c-28 -10 -54 -21 -57 -24 -12 -13 24 -100 60 -140 45 -52 92 -71 159 -63 123
15 189 90 189 214 0 36 -21 143 -55 283 -31 124 -60 246 -66 273 -12 51 -12
51 -82 32z"/>
<path d="M7555 3189 c-28 -16 -75 -61 -86 -81 -8 -15 -1 -22 41 -43 l51 -26
30 26 c36 30 37 30 89 9 42 -17 57 -45 45 -83 -6 -19 -14 -21 -103 -21 -118 0
-162 -11 -199 -50 -53 -57 -65 -127 -34 -197 34 -73 139 -105 226 -69 l35 15
0 -28 c0 -29 -3 -27 101 -57 14 -4 17 7 22 63 2 38 21 124 40 193 65 227 59
270 -46 324 -63 32 -176 46 -212 25z m135 -325 c0 -24 -24 -80 -43 -101 -25
-28 -77 -39 -106 -23 -51 27 -46 114 8 126 14 3 30 7 36 8 28 7 105 0 105 -10z"/>
<path d="M8817 3108 c-4 -29 -18 -165 -32 -303 -14 -137 -30 -286 -34 -330 -5
-44 -8 -82 -6 -84 2 -2 32 -6 67 -8 l64 -5 12 128 c18 185 18 184 52 184 72 0
91 -26 190 -252 38 -88 45 -98 69 -98 14 0 50 -3 78 -6 l53 -7 -40 101 c-48
123 -81 190 -114 229 l-26 30 44 13 c140 39 192 257 87 362 -45 44 -78 54
-257 73 -76 8 -153 17 -170 20 -31 5 -31 5 -37 -47z m246 -110 c96 -12 121
-26 133 -73 9 -36 -17 -97 -46 -113 -24 -12 -89 -10 -192 4 -34 5 -37 8 -33
32 2 15 7 57 10 95 7 77 -3 72 128 55z"/>
<path d="M13265 3078 c-27 -12 -52 -23 -54 -24 -7 -6 42 -126 54 -130 7 -3 35
5 62 18 l50 23 -25 68 c-13 37 -28 67 -31 67 -3 -1 -28 -10 -56 -22z"/>
<path d="M7952 2831 c-30 -143 -52 -266 -50 -273 3 -7 30 -18 60 -24 l56 -11
27 131 c15 72 34 155 42 185 18 67 59 111 103 111 38 0 80 -39 80 -74 0 -14
-16 -100 -35 -192 -19 -91 -35 -174 -35 -183 0 -14 14 -20 58 -28 31 -6 58
-10 59 -9 9 8 77 354 80 412 6 84 -9 121 -60 153 -67 41 -153 35 -210 -17 -18
-16 -19 -15 -12 19 8 43 5 46 -61 54 l-49 7 -53 -261z"/>
<path d="M11256 2975 c-47 -17 -91 -57 -119 -110 -17 -33 -21 -57 -21 -135 1
-144 46 -247 129 -296 58 -33 153 -34 216 -1 47 25 92 88 104 145 l7 32 -65 0
c-61 0 -65 -2 -71 -25 -9 -37 -42 -65 -75 -65 -38 0 -84 39 -98 84 l-11 35 67
10 c36 6 104 17 151 24 l85 13 -3 49 c-3 65 -46 158 -93 199 -58 53 -129 68
-203 41z m129 -129 c23 -23 43 -72 33 -82 -4 -3 -161 -34 -175 -34 -2 0 -3 17
-3 38 0 35 20 77 44 94 24 17 77 8 101 -16z"/>
<path d="M10915 2921 l-50 -6 3 -65 c2 -36 8 -103 13 -150 16 -154 14 -177
-25 -216 -41 -41 -77 -44 -110 -11 -26 26 -27 35 -50 279 -7 76 -15 140 -18
143 -3 3 -31 2 -63 -1 l-57 -7 7 -96 c25 -349 43 -410 128 -445 65 -27 126
-12 180 44 21 22 40 40 42 40 3 0 5 -16 5 -36 l0 -36 58 7 c31 4 58 8 59 9 1
0 -9 118 -22 261 -14 143 -24 268 -25 278 0 9 -6 16 -12 15 -7 0 -35 -4 -63
-7z"/>
<path d="M9555 2871 c-118 -53 -176 -231 -129 -392 42 -144 223 -215 344 -135
182 120 168 451 -22 530 -50 21 -143 20 -193 -3z m164 -127 c75 -63 62 -250
-21 -299 -54 -32 -121 -1 -147 68 -17 44 -13 137 8 183 35 76 102 97 160 48z"/>
<path d="M10113 2871 c-128 -59 -166 -312 -70 -472 39 -65 81 -91 147 -91 51
0 82 14 118 52 19 20 19 20 25 -62 4 -46 7 -107 7 -136 l0 -53 63 3 c62 3 62
3 61 33 -1 17 -5 189 -9 383 l-8 352 -58 0 -59 0 0 -37 0 -38 -31 33 c-53 56
-111 66 -186 33z m158 -114 c32 -25 50 -66 55 -128 11 -120 -30 -199 -104
-199 -27 0 -45 7 -59 23 -60 64 -56 249 5 298 28 21 79 25 103 6z"/>
<path d="M12506 2824 c-22 -8 -42 -16 -44 -19 -8 -7 30 -135 40 -135 6 0 34 7
63 15 l53 16 -19 67 c-10 37 -19 68 -19 69 0 7 -39 0 -74 -13z"/>
<path d="M6514 1931 c-59 -15 -138 -66 -176 -114 -59 -75 -81 -162 -76 -300 4
-126 21 -177 83 -253 124 -151 407 -147 512 8 34 50 66 125 55 132 -16 9 -135
47 -138 43 -2 -2 -17 -28 -32 -57 -38 -75 -68 -95 -146 -95 -53 0 -69 5 -98
27 -55 42 -72 88 -76 204 -4 115 7 170 45 215 72 85 217 78 273 -13 11 -18 21
-37 23 -42 5 -16 147 13 147 30 0 28 -44 107 -78 142 -53 52 -113 75 -207 78
-44 2 -94 0 -111 -5z"/>
<path d="M7045 1917 c-3 -6 -4 -181 -3 -387 l3 -375 73 -3 72 -3 1 148 c0 81
4 170 8 196 14 85 64 126 137 113 58 -11 64 -36 64 -261 l0 -195 76 0 76 0 -4
228 c-3 237 -5 249 -51 300 -29 31 -111 54 -165 46 -24 -4 -66 -21 -93 -40
l-49 -33 0 140 0 139 -70 0 c-47 0 -72 -4 -75 -13z"/>
<path d="M10062 1853 c-35 -89 -261 -672 -269 -690 -4 -10 16 -13 79 -13 l83
0 31 88 31 87 151 3 150 3 34 -88 34 -88 82 -3 c45 -2 82 1 82 5 0 4 -68 180
-152 391 l-152 382 -77 0 -78 0 -29 -77z m158 -260 l47 -128 -95 -3 c-52 -1
-96 -1 -98 1 -2 2 17 63 43 135 26 72 49 130 51 127 2 -2 25 -61 52 -132z"/>
<path d="M13280 1865 l0 -65 70 0 70 0 0 65 0 65 -70 0 -70 0 0 -65z"/>
<path d="M12998 1859 l-68 -40 0 -54 0 -55 -35 0 -35 0 0 -55 0 -55 35 0 35 0
0 -167 c0 -185 7 -228 46 -264 23 -21 34 -24 109 -24 48 0 89 5 95 11 7 7 9
29 4 62 l-6 50 -30 -9 c-19 -5 -38 -4 -49 2 -17 9 -19 24 -19 174 l0 165 50 0
50 0 0 55 0 55 -50 0 -50 0 0 95 c0 52 -3 95 -7 95 -5 -1 -38 -19 -75 -41z"/>
<path d="M7833 1720 c-62 -13 -100 -36 -127 -78 -38 -58 -41 -80 -14 -86 93
-19 97 -19 133 20 33 35 38 36 85 32 59 -6 80 -21 80 -59 0 -35 -11 -41 -120
-64 -47 -10 -104 -26 -127 -37 -78 -37 -111 -129 -75 -210 27 -61 71 -91 143
-96 67 -5 117 10 160 46 25 21 32 23 40 11 5 -8 9 -22 9 -31 0 -16 10 -18 75
-18 41 0 75 3 75 6 0 3 -6 15 -12 27 -8 15 -14 92 -18 227 -6 233 -12 255 -85
290 -47 22 -162 33 -222 20z m146 -417 c-7 -12 -32 -30 -56 -39 -41 -16 -47
-16 -78 -1 -44 21 -56 60 -27 89 11 12 52 28 93 38 l74 17 3 -40 c2 -23 -2
-51 -9 -64z"/>
<path d="M8438 1717 c-125 -36 -187 -128 -188 -283 -1 -190 95 -294 270 -294
115 0 198 56 234 157 l14 41 -31 5 c-116 20 -110 21 -132 -25 -27 -58 -65 -76
-119 -57 -63 22 -80 55 -84 159 -3 68 0 96 13 124 39 82 152 89 189 11 l16
-32 57 9 c88 14 86 12 68 55 -20 47 -59 89 -106 113 -48 25 -143 33 -201 17z"/>
<path d="M9040 1717 c-139 -39 -221 -163 -207 -313 15 -163 107 -252 267 -262
97 -6 160 19 224 88 104 112 99 318 -11 422 -63 60 -186 89 -273 65z m152
-134 c73 -64 77 -223 7 -292 -105 -106 -248 25 -210 192 6 30 19 64 28 76 35
51 131 64 175 24z"/>
<path d="M10844 1716 c-17 -7 -40 -25 -51 -39 -22 -29 -33 -26 -33 10 0 22 -4
23 -65 23 l-65 0 0 -280 0 -280 70 0 70 0 0 108 c1 151 14 249 37 281 22 29
78 40 112 22 17 -10 21 -5 40 51 12 34 21 68 21 75 0 30 -90 50 -136 29z"/>
<path d="M11193 1721 c-125 -32 -193 -150 -180 -317 6 -84 27 -137 70 -183 83
-87 207 -93 290 -14 l27 27 0 -62 c0 -103 -26 -132 -120 -132 -43 0 -52 4 -71
29 -17 23 -31 30 -77 35 -31 4 -66 9 -79 12 -20 6 -23 3 -23 -26 0 -82 61
-140 168 -161 130 -25 260 9 307 80 38 57 45 123 45 422 l0 279 -70 0 -70 0 0
-36 0 -37 -27 28 c-52 51 -124 72 -190 56z m159 -138 c11 -10 27 -32 34 -50
18 -42 18 -144 0 -187 -31 -75 -116 -100 -175 -50 -78 65 -63 268 23 305 31
13 94 4 118 -18z"/>
<path d="M11830 1715 c-63 -20 -123 -74 -151 -137 -34 -76 -34 -220 -1 -293
30 -65 56 -93 117 -121 38 -18 67 -24 121 -24 100 0 166 34 212 110 37 63 37
62 -60 74 -56 7 -57 7 -72 -22 -44 -86 -172 -49 -192 56 l-6 32 187 0 187 0
-7 63 c-15 129 -60 208 -140 246 -59 28 -138 34 -195 16z m124 -115 c30 -11
53 -44 62 -88 l7 -32 -112 0 c-112 0 -112 0 -106 23 26 92 76 125 149 97z"/>
<path d="M12530 1715 c-25 -8 -60 -28 -77 -44 l-33 -30 0 35 0 34 -70 0 -70 0
0 -280 0 -280 75 0 75 0 0 188 c0 165 2 191 19 218 24 39 69 58 116 50 55 -11
59 -28 65 -251 l5 -200 73 -3 72 -3 0 222 c0 202 -2 226 -20 264 -36 74 -138
110 -230 80z"/>
<path d="M13855 1725 c-5 -2 -22 -6 -37 -9 -14 -3 -47 -22 -72 -41 l-46 -35 0
35 0 35 -65 0 -65 0 0 -280 0 -281 73 3 72 3 5 190 c5 205 10 224 60 250 44
23 78 19 111 -14 l29 -29 0 -201 0 -201 75 0 75 0 0 214 c0 133 -4 226 -11
247 -14 40 -44 76 -79 94 -26 14 -108 27 -125 20z"/>
<path d="M14363 1720 c-77 -16 -115 -44 -147 -107 -27 -53 -25 -55 66 -68 44
-6 49 -4 59 19 15 33 59 50 111 43 45 -6 68 -27 68 -63 0 -30 -5 -33 -127 -60
-129 -29 -169 -52 -195 -112 -37 -83 -3 -178 75 -216 68 -32 195 -11 236 37
20 24 29 21 36 -13 l7 -30 73 0 74 0 -14 41 c-11 30 -15 88 -15 208 0 91 -4
183 -9 204 -11 45 -44 84 -86 102 -41 18 -160 26 -212 15z m140 -422 c-27 -30
-80 -50 -114 -43 -37 8 -63 46 -55 79 6 26 33 40 121 59 l60 14 3 -45 c2 -32
-2 -50 -15 -64z"/>
<path d="M13280 1430 l0 -280 70 0 70 0 0 280 0 280 -70 0 -70 0 0 -280z"/>
<path d="M9500 1430 l0 -70 145 0 146 0 -3 68 -3 67 -142 3 -143 3 0 -71z"/>
</g>
</svg>
